<?xml version="1.0" standalone="no"?>
<!DOCTYPE svg PUBLIC "-//W3C//DTD SVG 20010904//EN"
 "http://www.w3.org/TR/2001/REC-SVG-20010904/DTD/svg10.dtd">
<svg version="1.0" xmlns="http://www.w3.org/2000/svg"
 width="1213.000000pt" height="1290.000000pt" viewBox="0 0 1213.000000 1290.000000"
 preserveAspectRatio="xMidYMid meet">

<g transform="translate(0.000000,1290.000000) scale(0.100000,-0.100000)"
fill="#000000" stroke="none">
<path d="M0 6450 l0 -6450 6065 0 6065 0 0 5723 0 5723 -42 41 c-24 23 -74 60
-113 84 -64 39 -77 43 -147 47 -75 4 -78 3 -78 -18 0 -16 -5 -21 -22 -18 -21
3 -23 8 -23 68 0 60 2 65 23 68 17 3 22 -2 22 -18 0 -19 5 -21 43 -18 38 3 42
5 42 31 1 24 -3 27 -30 27 -64 0 -105 12 -105 30 0 18 36 30 91 30 24 0 29 4
29 24 0 22 -5 25 -60 31 -49 6 -60 10 -60 25 0 15 11 20 58 26 56 6 82 18 82
35 0 5 -17 9 -39 9 -21 0 -53 3 -71 6 -32 7 -32 7 -28 56 6 59 30 88 74 88 27
0 31 3 27 19 -4 16 -15 21 -52 23 l-46 3 0 65 c0 60 2 65 23 68 20 3 22 -1 22
-37 0 -33 4 -41 18 -41 14 0 18 8 18 37 0 20 5 38 12 41 17 5 15 32 -3 38 -21
8 -19 22 9 55 34 40 25 64 -31 78 -27 7 -43 16 -40 24 5 18 144 36 280 36
l117 1 0 35 c0 37 -22 49 -34 19 -6 -16 -46 -16 -281 1 -76 6 -81 8 -92 33
-22 55 -53 163 -53 185 0 13 -4 27 -9 32 -5 6 -11 24 -13 40 -3 28 -7 30 -53
37 -84 11 -4443 9 -4450 -2 -4 -7 -13 -7 -24 0 -11 6 -1326 9 -3570 10 l-3551
0 0 -6450z m9665 6430 c3 -5 1 -10 -4 -10 -6 0 -11 5 -11 10 0 6 2 10 4 10 3
0 8 -4 11 -10z m-195 -4 c0 -2 -7 -6 -15 -10 -8 -3 -15 -1 -15 4 0 6 7 10 15
10 8 0 15 -2 15 -4z m-390 -22 c0 -2 -7 -4 -15 -4 -8 0 -15 4 -15 10 0 5 7 7
15 4 8 -4 15 -8 15 -10z m540 -8 c0 -3 -4 -8 -10 -11 -5 -3 -10 -1 -10 4 0 6
5 11 10 11 6 0 10 -2 10 -4z m105 -46 c-3 -5 -11 -10 -16 -10 -6 0 -7 5 -4 10
3 6 11 10 16 10 6 0 7 -4 4 -10z m-78 -66 c-3 -3 -12 -4 -19 -1 -8 3 -5 6 6 6
11 1 17 -2 13 -5z m-790 -30 c-9 -9 -28 6 -21 18 4 6 10 6 17 -1 6 -6 8 -13 4
-17z m678 -104 c-3 -5 -11 -10 -16 -10 -6 0 -7 5 -4 10 3 6 11 10 16 10 6 0 7
-4 4 -10z m-385 -20 c0 -5 -7 -7 -15 -4 -8 4 -15 8 -15 10 0 2 7 4 15 4 8 0
15 -4 15 -10z m540 -10 c0 -5 -4 -10 -10 -10 -5 0 -10 5 -10 10 0 6 5 10 10
10 6 0 10 -4 10 -10z m-785 -20 c3 -5 1 -10 -4 -10 -6 0 -11 5 -11 10 0 6 2
10 4 10 3 0 8 -4 11 -10z m-5966 -82 l8 -23 7 23 c4 13 13 21 19 19 13 -4 19
-67 6 -67 -5 0 -9 6 -9 13 0 8 -3 8 -8 2 -4 -6 -17 -12 -29 -12 -20 -2 -23 3
-23 33 0 38 16 45 29 12z m171 1 c0 -18 2 -19 15 -9 12 10 19 10 27 2 9 -9 7
-12 -7 -12 -18 0 -18 0 1 -15 19 -14 18 -14 -3 -15 -13 0 -23 6 -23 13 0 8 -3
9 -8 1 -4 -6 -30 -12 -58 -13 -41 -1 -53 2 -58 15 -4 10 -2 22 4 28 7 7 10 4
10 -9 0 -16 2 -17 9 -6 15 23 59 25 64 4 3 -11 5 -8 6 10 1 31 21 37 21 6z
m7128 -188 c56 -39 208 -134 410 -256 55 -34 100 -54 109 -51 25 10 503 307
509 317 3 5 20 9 39 9 27 0 39 -7 60 -35 46 -60 35 -72 -190 -210 -88 -54
-213 -131 -277 -171 -64 -40 -128 -76 -141 -80 -20 -5 -68 20 -243 128 -120
73 -221 132 -226 131 -4 -2 -8 1 -8 6 0 4 -28 25 -62 46 -112 68 -127 94 -91
156 21 35 69 40 111 10z m225 -443 c144 -90 271 -163 282 -163 11 0 138 73
282 163 144 89 271 162 283 162 24 0 80 -53 80 -76 0 -31 -68 -80 -335 -245
-198 -121 -289 -172 -310 -172 -28 0 -186 92 -540 316 -92 58 -95 61 -95 104
0 35 37 73 72 73 10 0 136 -73 281 -162z m11 -307 c143 -89 264 -161 269 -161
6 0 124 70 263 156 139 85 266 160 282 166 35 14 68 -3 91 -46 12 -22 12 -30
1 -51 -9 -17 -121 -92 -322 -215 -169 -105 -310 -190 -313 -190 -3 0 -76 44
-163 98 -86 54 -221 138 -300 186 -79 49 -150 95 -158 103 -39 40 9 131 64
120 15 -3 144 -78 286 -166z m1448 -1 c25 -26 29 -36 24 -63 -11 -56 -35 -67
-148 -67 -97 0 -99 0 -96 23 3 21 9 22 98 27 83 4 95 7 98 24 6 29 -16 36
-110 36 -79 0 -88 2 -88 18 0 29 8 32 102 32 86 0 91 -1 120 -30z m-172 -205
c0 -28 4 -35 20 -35 16 0 20 7 20 36 0 31 3 35 23 32 17 -2 23 -11 25 -35 3
-32 4 -33 53 -33 46 0 49 -2 49 -25 l0 -26 -117 3 -118 3 -3 44 c-4 55 2 71
28 71 16 0 20 -6 20 -35z m0 -255 c0 -33 3 -40 20 -40 17 0 20 7 20 40 0 36 3
40 25 40 23 0 25 -4 25 -40 0 -38 2 -40 30 -40 28 0 30 2 30 40 0 33 3 40 20
40 18 0 20 -7 20 -65 l0 -65 -114 0 c-128 0 -126 -2 -126 88 0 38 2 42 25 42
23 0 25 -4 25 -40z m-5687 -139 c37 -6 97 -22 132 -35 l63 -24 126 19 c125 18
209 15 240 -10 6 -5 51 -12 100 -16 86 -7 90 -8 129 -46 23 -21 47 -39 53 -39
16 0 82 -37 109 -61 11 -9 63 -40 115 -69 148 -80 163 -89 196 -123 18 -18 60
-57 94 -87 35 -30 100 -92 145 -136 77 -76 83 -86 100 -150 10 -38 26 -87 36
-110 11 -22 19 -45 19 -50 0 -6 15 -27 33 -47 17 -20 38 -55 45 -77 7 -22 32
-85 57 -139 48 -107 52 -129 61 -331 7 -169 8 -160 -17 -250 -11 -41 -20 -84
-20 -95 1 -11 -6 -39 -15 -62 -13 -35 -13 -46 -3 -65 15 -26 18 -237 6 -325
-8 -53 -8 -53 19 -53 19 0 44 16 83 53 78 74 127 99 271 140 130 37 200 51
310 62 36 4 103 13 149 22 46 8 99 12 117 8 116 -21 445 -240 638 -425 67 -64
159 -149 206 -190 246 -214 263 -242 290 -475 7 -52 30 -152 57 -235 105 -333
137 -443 183 -634 27 -111 66 -248 87 -306 34 -92 41 -105 63 -108 88 -8 127
-24 172 -66 25 -24 49 -57 52 -73 7 -26 18 -46 72 -127 10 -15 28 -45 39 -65
24 -42 98 -163 137 -224 15 -23 31 -49 34 -57 4 -8 17 -28 28 -45 12 -16 33
-52 46 -79 14 -26 45 -70 71 -97 36 -40 51 -49 78 -49 50 0 150 -29 197 -56
45 -26 44 -21 23 -107 l-10 -37 -32 24 c-50 37 -106 57 -182 63 -60 5 -76 11
-112 40 -38 31 -123 134 -123 148 0 3 -17 32 -37 63 -21 32 -45 69 -53 84 -55
97 -84 138 -98 139 -9 0 -12 3 -6 5 11 5 -61 136 -148 268 -21 32 -38 64 -38
70 0 45 -114 84 -155 52 -20 -14 -19 -15 12 -48 l33 -34 -98 -96 c-106 -107
-252 -220 -318 -250 -24 -10 -46 -23 -49 -28 -3 -6 -12 -10 -18 -10 -7 0 2 12
18 26 l30 26 -38 -21 c-21 -12 -46 -21 -55 -21 -9 0 2 9 24 19 23 10 45 24 49
31 6 9 2 9 -16 0 l-24 -11 24 20 c23 20 17 26 -18 21 -12 -1 -13 1 -2 13 10
13 9 15 -10 10 -17 -5 -20 -3 -14 7 6 10 4 12 -10 6 -18 -6 -18 -6 -2 12 9 10
17 21 17 24 0 12 -38 2 -54 -14 -10 -10 -20 -18 -24 -18 -4 1 15 21 41 45 30
28 43 45 33 45 -9 0 -16 -4 -16 -9 0 -5 -11 -16 -25 -25 -25 -17 -25 -16 -13
4 7 11 16 20 20 20 5 0 8 5 8 10 0 6 12 22 28 36 18 18 21 24 9 20 -11 -3 -27
2 -39 14 -12 11 -25 17 -30 14 -4 -3 -8 -3 -8 1 0 3 15 15 33 26 27 17 28 19
7 13 -23 -6 -22 -3 14 37 22 24 54 51 70 59 54 28 96 54 96 61 0 12 -37 -2
-57 -20 -10 -10 -30 -17 -43 -16 -14 1 -43 -7 -65 -18 -22 -11 -53 -20 -68
-19 -16 2 -26 -1 -24 -5 3 -5 -22 -10 -56 -11 -34 -2 -65 -6 -69 -8 -19 -12
-6 16 15 32 l22 16 -25 -7 c-38 -12 -92 -8 -101 7 -5 7 -9 24 -9 38 0 23 -4
25 -43 25 -23 0 -47 -4 -54 -8 -7 -5 -21 1 -33 13 -16 16 -25 18 -39 10 -15
-8 -26 -4 -50 17 -27 24 -31 34 -31 80 0 28 -4 55 -10 58 -18 11 -12 -116 7
-137 9 -10 17 -30 18 -46 2 -15 6 -35 10 -45 5 -13 3 -16 -8 -11 -9 3 -18 13
-21 22 -3 10 -4 0 -1 -20 2 -21 0 -38 -5 -38 -11 0 -20 25 -21 58 0 16 -3 21
-6 12 -12 -31 -25 -41 -39 -29 -11 9 -14 8 -14 -6 0 -17 -1 -17 -20 0 -14 12
-18 26 -14 44 5 23 4 23 -11 -6 -15 -28 -20 -31 -42 -22 -13 5 -29 6 -34 3
-11 -7 -99 82 -99 99 0 7 -4 7 -12 -1 -17 -17 -28 -15 -28 5 0 13 -3 14 -11 6
-6 -6 -18 -9 -25 -6 -8 3 -14 0 -14 -7 0 -6 -4 -8 -10 -5 -5 3 -10 15 -10 26
0 10 -5 19 -10 19 -6 0 -22 12 -36 28 -14 15 -23 21 -19 15 3 -7 1 -13 -4 -13
-6 0 -11 6 -11 13 0 6 -13 25 -30 40 -16 16 -30 36 -31 45 0 11 -4 8 -11 -8
-9 -24 -10 -23 -30 25 -11 28 -26 54 -34 58 -8 4 -14 16 -14 27 0 10 -13 28
-30 40 -16 12 -30 27 -30 34 0 7 -19 21 -42 32 -52 22 -57 29 -59 74 l-1 35
-8 -33 c-4 -18 -11 -36 -15 -40 -5 -4 -5 1 -1 12 5 14 3 17 -10 12 -22 -9 -54
21 -54 50 0 17 -4 21 -20 17 -20 -5 -25 7 -22 51 2 13 -2 16 -14 12 -10 -4
-14 -1 -12 6 3 7 -4 17 -15 23 -11 5 -25 19 -31 30 -6 10 -16 25 -23 32 -7 8
-10 20 -7 27 3 9 -1 13 -13 13 -13 -2 -18 5 -17 21 0 14 -8 30 -23 39 -16 11
-23 25 -23 47 0 19 -8 38 -20 49 -16 14 -19 24 -13 62 5 38 3 44 -9 40 -9 -4
-28 5 -44 21 -19 17 -25 28 -16 31 15 6 16 33 1 33 -21 0 -79 56 -79 76 0 22
-22 48 -33 38 -3 -3 -11 11 -18 30 -7 20 -16 36 -20 36 -4 0 -21 14 -39 30
-18 17 -36 30 -40 30 -4 0 -35 25 -67 55 -62 57 -85 102 -76 149 3 15 1 26 -5
26 -6 0 -13 -10 -15 -22 -2 -13 -5 -2 -6 24 0 25 -4 53 -7 62 -3 9 -1 16 5 16
6 0 11 -11 11 -25 0 -14 5 -25 10 -25 7 0 8 18 4 50 -6 49 -6 50 19 50 21 0
177 -66 177 -75 0 -2 -9 -1 -20 2 -36 10 -21 -6 28 -27 26 -12 53 -23 60 -24
8 -1 29 -14 47 -29 19 -15 38 -27 42 -27 14 0 103 -81 103 -93 0 -6 -22 10
-48 36 -26 26 -51 47 -55 47 -11 0 -8 -39 4 -61 7 -15 7 -24 -1 -34 -8 -9 -8
-24 -2 -47 5 -18 7 -39 4 -47 -3 -9 0 -11 8 -6 10 6 12 2 8 -13 -7 -26 -1 -28
24 -5 17 15 20 15 39 -5 11 -12 26 -22 34 -22 8 0 17 -5 21 -11 4 -8 0 -9 -15
-4 -21 6 -23 2 -23 -40 0 -37 3 -46 15 -40 6 4 -1 -6 -18 -22 -52 -50 -65 -71
-25 -42 58 42 64 45 50 20 -11 -21 -9 -21 28 4 41 27 66 26 82 -5 7 -12 4 -23
-11 -39 -11 -11 -17 -22 -14 -22 3 -1 8 -3 13 -4 4 -1 22 -6 40 -10 37 -9 38
-12 15 -37 -9 -10 -12 -18 -6 -18 5 0 18 9 28 20 10 11 28 20 41 20 31 0 97
-77 91 -107 -4 -20 -3 -21 20 -6 l23 15 -50 55 c-28 30 -55 65 -61 77 -11 20
104 -99 145 -151 10 -13 20 -22 22 -20 3 2 -12 49 -31 103 -20 54 -41 115 -48
134 -6 19 -32 55 -57 80 -29 29 -50 61 -59 90 -12 42 -12 45 10 62 45 35 64
55 118 126 l54 71 61 -52 c33 -29 70 -63 82 -77 40 -46 94 -120 94 -128 0 -5
11 -19 25 -32 14 -13 34 -43 46 -67 11 -23 34 -52 50 -64 36 -26 37 -44 2 -63
-16 -8 -41 -29 -58 -48 -16 -18 -26 -30 -21 -26 10 8 66 -18 81 -38 13 -17 81
-28 89 -15 4 5 -9 15 -28 22 l-35 13 27 22 c32 28 42 23 16 -8 -10 -13 -12
-17 -4 -11 23 17 137 -13 172 -45 15 -13 36 -46 47 -73 20 -46 41 -71 41 -49
0 6 -9 29 -21 51 -11 23 -18 47 -15 55 7 18 -14 54 -31 54 -7 0 -13 3 -13 8 0
4 -3 18 -7 32 -6 22 -5 24 10 11 12 -9 17 -10 17 -2 0 8 7 7 22 -3 12 -9 31
-16 41 -16 14 0 18 -5 14 -17 -11 -42 -11 -47 -2 -48 35 -5 47 -19 41 -49 -4
-21 -1 -39 9 -51 8 -11 15 -15 15 -7 0 19 17 14 23 -6 2 -11 13 -21 24 -24 19
-5 19 -3 6 55 -8 33 -12 71 -8 84 3 13 0 33 -6 46 -7 12 -13 46 -15 75 -2 45
1 55 23 72 14 11 40 22 59 26 18 3 38 12 45 20 9 12 6 13 -20 8 -25 -5 -31 -3
-31 10 0 13 -4 15 -17 8 -13 -8 -25 -2 -52 23 -20 19 -47 43 -61 54 -20 16
-23 22 -12 32 17 18 15 34 -3 19 -18 -15 -38 2 -50 40 -4 14 -18 42 -32 62
-14 21 -23 44 -20 52 3 8 33 27 66 42 56 26 80 47 49 43 -59 -7 -93 18 -76 56
6 14 9 26 7 28 -2 1 -19 10 -36 19 l-33 17 0 -31 c0 -30 0 -30 -24 -15 -13 9
-36 28 -52 42 -15 14 -31 25 -36 25 -4 0 -5 12 -2 28 7 24 6 26 -9 13 -15 -12
-17 -11 -17 3 0 11 -4 14 -12 9 -7 -4 -41 -8 -76 -10 -45 -1 -79 -10 -126 -33
-35 -16 -75 -30 -89 -30 -14 0 -29 -5 -33 -11 -4 -7 -21 -9 -40 -6 -29 5 -34
3 -34 -13 0 -18 -162 -190 -179 -190 -5 0 -30 -21 -55 -47 -53 -56 -111 -80
-151 -61 -15 7 -25 19 -25 33 0 11 -5 26 -10 31 -7 7 0 26 20 57 16 26 27 54
24 62 -4 8 -2 15 3 15 5 0 19 9 31 20 16 15 22 17 22 7 0 -8 7 -20 15 -27 8
-7 12 -17 8 -24 -4 -8 -3 -8 6 0 8 8 9 18 2 37 -8 21 -6 31 12 54 19 26 20 27
1 11 -30 -26 -37 -22 -19 13 10 18 22 29 30 25 8 -3 24 11 39 34 47 71 88 110
158 151 67 39 91 65 32 34 -35 -18 -85 -20 -102 -3 -9 9 -12 7 -12 -11 0 -29
-18 -63 -30 -56 -6 3 -70 -54 -144 -128 -145 -146 -176 -163 -233 -133 -37 19
-66 52 -60 68 10 29 -16 48 -98 74 -85 26 -85 26 -85 60 0 39 11 44 25 12 16
-37 72 -60 134 -55 51 4 58 7 97 53 42 48 44 49 75 37 l31 -12 -5 33 c-5 30
-1 38 40 74 24 23 56 48 69 57 13 8 24 24 24 34 0 10 10 26 23 34 l22 16 -22
-6 c-20 -5 -64 -43 -49 -43 4 0 2 -9 -4 -21 -7 -11 -14 -18 -17 -15 -3 3 0 12
7 21 7 8 9 15 5 15 -14 0 -134 -123 -129 -132 5 -8 -7 -11 -60 -12 -22 -1 -33
-9 -45 -32 -18 -35 -46 -50 -107 -57 -48 -6 -69 4 -88 42 -13 24 -13 31 -1 48
14 19 12 21 -39 26 -67 7 -116 31 -116 57 0 11 -4 20 -10 20 -5 0 -10 -10 -10
-21 0 -18 -2 -19 -15 -9 -8 7 -15 9 -15 5 0 -22 -26 18 -28 43 -3 43 37 75
101 82 47 4 52 7 49 28 -2 12 1 22 7 22 6 0 8 7 4 16 -3 9 0 20 8 25 10 6 10
9 2 9 -18 0 -16 25 3 44 14 15 14 17 0 22 -9 3 -16 10 -16 15 0 4 7 6 16 2 12
-4 15 -2 12 8 -3 8 -13 13 -22 13 -16 -2 -16 -1 -1 16 9 10 15 21 14 26 -2 16
13 54 22 54 5 0 4 11 -1 25 -6 15 -6 26 0 30 16 10 11 28 -5 21 -12 -4 -13 -2
-3 13 9 15 7 23 -9 40 -18 19 -19 28 -11 69 4 26 6 52 4 58 -3 7 -2 15 1 18 3
3 7 23 9 45 2 21 9 55 17 73 10 23 11 40 5 51 -7 13 -5 17 9 17 17 1 16 2 -2
17 -13 10 -15 14 -4 10 9 -3 22 -1 30 4 9 5 10 9 2 9 -8 0 -9 9 -3 30 5 17 5
30 1 30 -8 0 -21 47 -20 68 0 4 8 6 17 4 10 -2 13 0 6 5 -20 15 -24 44 -10 78
10 22 11 37 5 41 -6 3 -8 12 -5 19 2 7 -1 18 -7 24 -8 8 -6 11 9 12 10 0 13 3
7 6 -7 2 -13 11 -13 19 0 8 -5 14 -10 14 -6 0 -8 11 -4 27 6 22 4 25 -10 20
-9 -4 -16 -2 -16 3 0 6 5 10 12 10 6 0 3 9 -7 20 -10 11 -15 20 -10 20 4 0 0
11 -9 25 -9 14 -14 30 -11 34 9 15 -13 60 -45 94 -23 24 -29 27 -25 12 3 -12
1 -10 -7 5 -7 14 -17 28 -22 31 -5 4 -6 15 -2 25 6 16 5 16 -15 -2 l-22 -19
12 23 c8 14 8 22 1 22 -5 0 -10 7 -10 16 0 8 5 12 10 9 6 -3 10 -3 10 2 -1 14
-27 43 -38 43 -19 0 -43 42 -31 56 7 8 7 14 -1 19 -21 13 -10 26 13 14 l22
-12 -22 25 c-13 13 -23 31 -23 39 0 12 -2 12 -10 -1 -9 -13 -10 -13 -11 0 -1
8 -3 20 -3 25 -3 24 -18 35 -42 29 -18 -5 -24 -2 -24 10 0 17 -63 49 -68 34
-2 -4 -8 -5 -14 -2 -7 4 -6 9 2 14 8 5 9 10 2 14 -6 3 -17 -1 -25 -9 -18 -17
-37 -20 -37 -5 0 6 6 10 12 10 7 0 2 7 -10 16 -12 8 -22 21 -22 27 0 8 3 7 9
-2 7 -11 13 -10 32 8 12 11 19 24 16 28 -4 3 -7 2 -7 -4 0 -6 -7 -14 -16 -17
-12 -4 -15 -2 -10 9 4 12 2 13 -12 7 -19 -10 -59 22 -42 33 12 8 -6 45 -22 45
-7 0 -6 -5 2 -15 19 -23 6 -28 -14 -6 -18 19 -14 47 5 36 5 -4 9 -1 9 4 0 6
-9 11 -20 11 -11 0 -20 -5 -20 -12 0 -6 -7 -3 -15 8 -13 17 -14 17 -15 2 0
-25 -16 -30 -17 -5 -1 65 -3 71 -15 59 -14 -14 -32 -16 -24 -3 3 5 -2 15 -11
22 -15 12 -16 12 -10 -4 4 -10 3 -16 -2 -12 -5 3 -12 1 -16 -5 -3 -5 -11 -10
-18 -10 -8 0 -8 3 1 12 18 18 15 26 -10 30 -12 2 -23 9 -26 17 -3 8 0 11 7 7
6 -4 11 -5 11 -2 0 3 -17 14 -39 25 -29 15 -41 17 -50 8 -6 -6 -11 -7 -11 -3
0 5 -7 3 -15 -4 -12 -10 -15 -10 -15 3 0 9 5 19 10 22 6 4 7 11 4 17 -5 7 -11
2 -17 -13 -5 -13 -11 -19 -14 -12 -2 6 -26 17 -53 24 -45 11 -50 16 -56 46 -7
35 -13 40 -30 23 -7 -7 -20 -6 -40 5 -16 8 -34 15 -41 15 -7 0 -10 7 -7 15 4
8 1 15 -5 15 -6 0 -11 -6 -11 -13 0 -10 -13 -13 -45 -12 -25 2 -42 -1 -39 -6
3 -5 0 -9 -5 -9 -6 0 -11 9 -11 21 0 15 5 19 15 15 8 -3 15 -1 15 4 0 12 -6
12 -38 3 -18 -4 -20 -8 -10 -14 10 -6 10 -11 1 -20 -9 -9 -15 -6 -24 14 -7 15
-16 27 -20 27 -15 0 -20 -20 -9 -42 10 -21 10 -21 -3 -5 -9 10 -21 15 -31 11
-9 -4 -24 0 -34 9 -24 22 -122 27 -122 6 0 -5 5 -7 10 -4 6 3 10 1 10 -5 0 -7
-8 -9 -19 -5 -12 3 -21 0 -25 -10 -3 -8 -13 -15 -22 -15 -10 0 -14 5 -10 15 3
8 1 15 -4 15 -6 0 -10 6 -10 14 0 8 -12 17 -26 20 -32 8 -44 1 -15 -9 12 -3
21 -10 21 -15 0 -12 -32 0 -42 14 -4 6 -5 20 -2 31 l5 20 -12 -20 c-14 -23
-30 -35 -44 -34 -5 0 -4 3 3 6 28 11 10 24 -25 18 -74 -13 -87 -14 -107 -2
-12 6 -24 11 -28 12 -3 0 -9 3 -13 7 -4 4 -17 3 -30 -2 -14 -5 -26 -5 -34 3
-8 8 -11 7 -11 -6 0 -9 -3 -16 -7 -16 -30 5 -45 -2 -39 -18 6 -17 5 -17 -7 -1
-8 10 -17 15 -20 12 -3 -4 -22 3 -40 14 -33 19 -34 19 -30 1 3 -10 9 -16 14
-13 5 3 9 -2 9 -12 0 -14 -2 -14 -16 -3 -12 10 -17 10 -23 0 -7 -10 -9 -9 -14
2 -8 20 -57 19 -57 -2 0 -13 -2 -13 -9 -2 -6 9 -11 10 -15 2 -4 -6 -15 -11
-24 -11 -10 0 -31 -12 -47 -27 -16 -16 -33 -28 -36 -28 -4 0 -18 -9 -31 -21
-13 -11 -34 -20 -46 -19 -11 1 -19 -1 -17 -4 2 -4 -3 -17 -12 -31 -8 -14 -12
-17 -9 -8 3 9 -2 22 -10 29 -12 10 -13 9 -8 -5 7 -19 -7 -21 -24 -4 -12 12
-16 0 -15 -42 1 -10 -4 -7 -14 8 -22 32 -37 27 -16 -5 11 -16 13 -24 5 -19 -8
5 -18 1 -27 -10 -8 -11 -15 -14 -15 -9 0 13 -53 14 -62 1 -4 -6 -16 -3 -30 9
l-23 20 18 -21 c19 -23 24 -45 5 -26 -16 16 -49 15 -47 0 3 -27 -1 -48 -11
-48 -5 0 -7 7 -4 15 4 9 0 15 -10 15 -9 0 -16 -4 -16 -10 0 -5 -7 -7 -15 -4
-11 5 -13 2 -8 -12 4 -12 3 -15 -6 -10 -7 5 -18 1 -26 -10 -13 -18 -14 -18
-20 -2 -4 10 -11 16 -16 13 -4 -3 -5 -13 -2 -21 4 -10 -2 -17 -16 -21 -11 -3
-21 -12 -21 -19 0 -8 -5 -14 -11 -14 -6 0 -8 -9 -4 -20 4 -11 2 -20 -4 -20 -6
0 -11 -6 -11 -13 0 -7 -9 -19 -20 -27 -11 -8 -20 -20 -20 -27 0 -7 -6 -13 -14
-13 -8 0 -16 -6 -19 -12 -3 -10 -7 -10 -19 0 -12 9 -18 10 -23 2 -4 -6 -13 -9
-21 -6 -10 4 -12 -2 -7 -26 6 -29 5 -30 -18 -18 -21 12 -23 12 -11 -3 11 -13
10 -17 -5 -26 -10 -6 -14 -11 -8 -11 5 0 -1 -7 -13 -16 -12 -8 -22 -21 -21
-27 3 -24 -1 -37 -12 -37 -5 0 -7 6 -3 13 4 6 3 9 -1 4 -5 -4 -10 -17 -12 -29
-6 -39 -70 -128 -92 -128 -10 0 -15 -13 -12 -32 0 -4 -11 -24 -24 -45 -14 -20
-23 -43 -20 -50 2 -8 1 -12 -4 -9 -5 3 -12 -1 -15 -10 -3 -8 -10 -12 -16 -9
-6 4 -8 11 -5 16 4 5 2 9 -3 9 -11 0 -22 -36 -14 -45 9 -9 11 -35 2 -35 -15 0
-41 -70 -35 -92 5 -12 3 -18 -3 -14 -5 3 -12 -1 -16 -9 -3 -8 2 -19 12 -24 18
-10 28 -51 11 -51 -5 0 -9 8 -9 17 0 9 -3 14 -6 10 -9 -9 6 -48 17 -42 5 3 6
-1 3 -9 -3 -8 -15 -18 -26 -22 -11 -3 -17 -8 -14 -11 3 -3 1 -14 -5 -24 -7
-14 -6 -17 4 -13 8 3 14 -1 14 -8 0 -7 4 -21 8 -32 6 -14 5 -17 -6 -14 -8 3
-13 13 -13 22 1 9 -2 16 -7 16 -25 0 4 -60 29 -60 15 -1 14 -2 -3 -13 -16 -10
-20 -23 -20 -67 0 -30 6 -66 14 -79 9 -16 10 -26 2 -30 -6 -4 -9 -18 -6 -31 3
-14 0 -40 -5 -59 -7 -27 -6 -39 5 -51 8 -9 15 -20 15 -25 0 -5 -7 0 -15 11 -8
10 -15 14 -15 7 0 -6 9 -18 21 -26 17 -12 19 -23 16 -66 -3 -28 -1 -51 4 -51
6 0 5 -9 -1 -20 -6 -11 -8 -20 -4 -20 4 0 -1 -9 -11 -20 -15 -17 -16 -20 -3
-20 9 0 19 -7 22 -16 9 -22 -3 -32 -14 -14 -8 12 -10 12 -10 -4 0 -10 8 -25
18 -32 10 -8 12 -13 5 -14 -20 0 -15 -24 12 -64 13 -20 22 -36 18 -36 -3 0 0
-6 6 -13 6 -8 7 -17 3 -21 -11 -12 -10 -60 2 -68 6 -4 23 -8 37 -8 32 0 42 -9
28 -27 -9 -10 -6 -13 14 -13 13 0 30 7 37 16 13 14 72 14 148 -2 14 -3 21 0
20 8 -2 8 5 12 16 10 14 -3 17 1 12 15 -5 12 1 9 19 -9 27 -29 33 -53 11 -45
-11 5 -11 1 1 -24 8 -16 21 -33 30 -37 12 -7 4 -16 -38 -42 -47 -29 -58 -31
-102 -26 -41 6 -55 3 -93 -19 -38 -22 -48 -24 -61 -14 -13 12 -13 14 4 20 13
6 14 8 3 8 -9 1 -25 -6 -37 -14 -25 -18 -32 -11 -91 90 -43 73 -83 119 -117
136 -16 7 -15 6 3 -7 12 -9 22 -21 22 -27 0 -5 8 -16 18 -24 9 -7 13 -13 7
-12 -48 6 -44 -26 8 -64 32 -23 37 -32 37 -67 0 -40 0 -40 38 -40 35 0 39 -3
79 -70 53 -87 63 -120 37 -120 -17 0 -16 -1 1 -14 19 -14 19 -15 -5 -35 -14
-11 -42 -26 -62 -32 -32 -10 -44 -9 -79 6 -39 18 -109 88 -109 109 0 12 -14
28 -109 122 -33 34 -61 65 -61 68 0 4 5 16 11 27 10 20 10 20 -15 4 -14 -10
-26 -20 -26 -22 0 -3 22 -29 48 -58 48 -52 86 -132 57 -121 -7 2 -16 -1 -18
-9 -4 -8 5 -14 24 -17 24 -4 29 -1 24 11 -10 25 35 -20 52 -53 14 -27 14 -31
-2 -42 -22 -16 -11 -54 16 -54 10 0 19 5 19 10 0 6 4 10 8 10 12 0 13 -58 1
-66 -5 -3 -7 -9 -4 -14 3 -5 1 -18 -5 -29 -15 -30 -3 -53 22 -40 29 16 45 5
70 -46 l22 -45 21 22 c13 15 21 40 23 71 2 50 -3 55 -34 32 -10 -8 -23 -14
-29 -15 -18 0 49 50 106 79 30 16 61 40 67 53 12 22 12 22 6 1 -5 -22 -4 -22
30 -8 19 8 49 15 66 15 39 0 39 17 0 135 -33 99 -34 103 -21 89 5 -5 20 -45
34 -89 31 -97 48 -314 27 -340 -7 -8 -10 -15 -6 -15 3 0 -1 -8 -9 -17 -40 -47
-75 -83 -79 -83 -2 0 -40 -36 -85 -80 -76 -76 -101 -93 -101 -70 0 6 -9 10
-20 10 -11 0 -20 -4 -20 -8 0 -4 -9 -8 -20 -9 -15 -1 -11 6 20 36 50 47 56 91
13 90 -16 0 -22 -3 -15 -6 19 -8 -30 -42 -64 -44 -37 -2 -74 13 -98 40 -10 11
-22 18 -26 16 -4 -3 -11 19 -14 49 -6 42 -12 55 -27 59 -10 3 -17 1 -14 -3 3
-5 2 -11 -3 -14 -5 -3 -14 17 -21 44 -7 26 -21 56 -32 66 -29 26 -72 121 -66
145 4 16 2 19 -14 14 -20 -7 -132 54 -146 80 -5 7 -35 37 -67 65 -39 35 -65
50 -78 47 -11 -3 -22 2 -28 13 -14 26 -13 28 15 22 28 -5 33 12 12 39 -15 20
-87 22 -87 2 0 -7 5 -13 10 -13 6 0 9 -16 6 -36 -3 -34 -23 -57 -51 -59 -5 0
-27 -9 -47 -20 -40 -20 -50 -37 -20 -34 9 1 41 1 69 0 44 -1 58 -6 85 -31 18
-17 25 -27 16 -24 -14 5 -18 1 -18 -15 0 -16 6 -21 24 -21 20 0 33 -15 73 -85
26 -47 51 -85 55 -85 3 0 32 23 63 51 55 51 56 52 94 40 32 -9 42 -19 55 -51
9 -22 16 -43 16 -45 0 -3 -18 -16 -41 -30 -22 -15 -53 -46 -67 -70 -24 -39
-52 -59 -52 -37 0 4 -9 18 -20 32 -17 21 -16 16 5 -30 14 -30 25 -63 25 -72 0
-10 5 -18 11 -18 6 0 9 9 6 20 -8 29 8 15 26 -22 25 -56 29 -85 11 -92 -12 -5
-15 -2 -10 10 4 11 1 14 -11 12 -19 -3 -38 -58 -20 -58 8 0 8 -3 -1 -12 -7 -7
-8 -17 -1 -30 6 -12 6 -24 0 -36 -10 -19 -24 -105 -22 -132 1 -8 2 -41 2 -73
1 -62 7 -65 25 -14 11 33 66 73 84 62 5 -3 10 -16 10 -28 0 -16 3 -18 9 -9 6
11 20 1 56 -37 27 -28 50 -49 53 -46 3 3 -9 18 -26 35 -18 17 -32 35 -32 41 0
6 -14 31 -32 55 l-32 45 22 21 22 22 31 -23 c36 -27 50 -20 23 11 -10 12 6 1
37 -23 31 -24 64 -50 75 -57 17 -11 17 -11 -3 -2 -12 5 -27 10 -33 10 -13 0
-2 -49 16 -70 7 -9 11 -26 7 -38 -4 -16 -13 -22 -35 -22 -24 0 -29 -3 -24 -17
4 -9 1 -20 -5 -24 -9 -5 -8 -12 3 -27 17 -25 12 -91 -8 -99 -8 -3 -14 -14 -14
-25 0 -15 -5 -18 -20 -13 -16 5 -19 3 -13 -11 5 -13 3 -16 -10 -11 -12 5 -17
1 -17 -13 0 -11 -4 -20 -10 -20 -5 0 -10 5 -10 10 0 6 -5 10 -11 10 -7 0 -9
-10 -5 -25 7 -27 -2 -32 -23 -13 -12 11 -13 9 -7 -7 7 -19 6 -19 -15 2 -13 12
-23 36 -25 59 -1 20 -7 40 -12 43 -5 3 -15 17 -22 31 l-13 25 22 -19 c11 -11
21 -14 21 -8 0 6 -4 14 -10 17 -16 10 -12 22 9 28 11 2 25 0 32 -7 9 -8 11 -7
7 5 -3 8 3 26 13 40 25 32 24 47 -1 24 -11 -10 -31 -19 -44 -20 -14 -2 -29 -6
-34 -9 -12 -7 -94 49 -109 76 -7 13 -12 37 -13 53 0 17 -7 40 -15 52 -8 11
-23 60 -34 108 -10 47 -21 89 -24 91 -8 8 5 -87 18 -140 21 -81 9 -85 -57 -19
-33 32 -66 72 -75 88 -8 17 -27 40 -41 52 -21 18 -24 25 -14 35 6 6 12 21 12
31 0 20 36 77 49 77 4 0 29 -20 55 -45 38 -35 52 -43 62 -34 20 17 17 23 -16
37 -16 8 -44 32 -62 55 -18 23 -41 51 -51 62 -10 11 -27 36 -37 56 -10 19 -26
41 -34 48 -9 8 -16 24 -16 37 0 15 -6 24 -15 24 -8 0 -15 8 -15 18 -1 16 -1
16 -10 0 -22 -36 -128 -40 -195 -7 -28 14 -58 23 -68 21 -18 -4 -18 -5 -1 -23
9 -10 14 -20 11 -20 -13 -3 -22 -6 -39 -13 -10 -4 -33 1 -60 15 l-43 22 19
-22 c11 -12 48 -36 83 -53 70 -34 81 -60 28 -66 -17 -2 -34 -8 -39 -13 -15
-14 -26 -11 -26 9 -1 11 -20 26 -53 42 -65 32 -78 35 -49 14 12 -9 22 -23 22
-30 0 -8 22 -25 49 -39 59 -29 77 -50 38 -43 -23 4 -26 2 -22 -16 4 -16 -5
-28 -36 -49 -40 -28 -45 -29 -132 -23 -49 3 -87 3 -85 1 2 -3 35 -16 74 -30
103 -39 116 -49 102 -80 -8 -18 -8 -29 -1 -36 11 -11 -9 -82 -30 -107 -8 -10
-7 -16 3 -22 9 -6 11 -20 6 -50 -6 -36 -4 -41 9 -37 26 11 19 -88 -10 -148
-14 -27 -25 -54 -25 -58 0 -5 -12 -24 -26 -43 -52 -68 3 -51 57 17 27 34 34
53 37 100 2 33 8 59 13 59 5 0 9 9 9 20 0 10 8 27 19 37 10 10 26 31 36 46 16
26 19 26 30 10 7 -10 11 -48 11 -86 -1 -37 0 -67 2 -67 2 0 12 20 23 45 11 25
29 51 40 58 10 6 19 17 19 23 0 19 56 37 77 25 17 -10 17 -10 1 -11 -10 0 -18
-4 -18 -10 0 -5 5 -10 11 -10 6 0 9 -7 5 -15 -3 -9 0 -15 9 -15 8 0 15 4 15 8
0 11 90 43 101 36 18 -10 9 -32 -16 -38 -24 -6 -36 -36 -15 -36 6 0 10 4 10 9
0 6 21 13 48 16 26 4 68 13 93 20 28 8 51 10 60 4 20 -12 46 -12 33 1 -13 13
-47 14 -104 5 -33 -5 -41 -4 -30 4 13 9 12 11 -5 12 -11 1 -23 1 -27 0 -5 0
-8 4 -8 9 0 6 6 11 13 12 20 3 50 5 81 7 24 1 27 5 23 22 -4 15 -2 19 10 15 8
-3 21 -6 29 -6 8 0 14 -7 14 -16 0 -11 6 -15 20 -11 11 3 23 1 26 -4 3 -5 0
-8 -7 -7 -6 2 -14 -3 -16 -9 -3 -7 3 -13 12 -13 11 0 15 -5 12 -14 -3 -8 -3
-17 1 -20 3 -4 7 -16 9 -28 5 -29 22 -48 44 -48 10 0 21 -5 24 -10 4 -6 23
-21 43 -34 27 -17 42 -36 55 -72 18 -52 24 -174 8 -174 -17 0 -23 20 -12 34 8
10 7 17 -5 27 -15 12 -16 11 -10 -9 6 -19 4 -22 -16 -19 -13 2 -33 -2 -45 -10
-12 -8 -27 -12 -33 -8 -6 4 -10 -7 -10 -29 0 -65 -21 -138 -41 -143 -10 -3
-21 -18 -24 -33 -4 -19 -11 -27 -20 -24 -7 3 -16 -3 -20 -15 -3 -12 -10 -21
-15 -21 -4 0 -11 -12 -15 -27 -4 -19 -9 -23 -15 -14 -6 10 -10 7 -15 -10 -12
-40 -68 -84 -101 -81 -16 2 -34 10 -40 18 -10 12 -12 11 -17 -7 -4 -14 -11
-20 -20 -16 -8 3 -20 0 -26 -6 -8 -8 -11 -7 -11 6 0 9 -4 17 -10 17 -5 0 -10
-9 -10 -20 0 -14 -6 -20 -17 -18 -12 2 -19 -6 -23 -27 l-6 -30 -14 23 c-19 29
-38 28 -51 -2 -14 -30 -46 -41 -52 -17 -3 13 -5 13 -11 -4 -24 -63 -22 -63
-42 -22 -10 20 -21 37 -26 37 -4 0 -8 9 -8 19 0 11 -4 23 -10 26 -6 3 -10 -1
-10 -9 0 -9 -4 -16 -10 -16 -5 0 -10 5 -10 11 0 5 -5 7 -11 3 -8 -4 -8 0 0 15
7 11 14 38 16 58 2 21 11 76 20 122 12 58 14 90 7 105 -9 19 -11 16 -22 -27
-7 -26 -25 -63 -41 -83 -15 -19 -25 -42 -22 -50 5 -14 -27 -54 -43 -54 -3 0
-17 -9 -31 -20 -14 -11 -29 -17 -34 -14 -21 12 -91 11 -169 -4 -47 -9 -77 -18
-67 -20 23 -5 16 -27 -9 -27 -11 0 -19 7 -18 15 1 12 -9 16 -35 17 -20 0 -63
3 -96 6 -37 3 -65 1 -73 -6 -10 -8 -19 -7 -35 3 -21 12 -21 12 -7 -5 14 -17
13 -18 -3 -12 -13 5 -16 3 -10 -6 4 -6 8 -18 9 -26 2 -7 11 -19 21 -26 22 -16
63 -52 48 -44 -5 3 -23 9 -40 13 l-30 7 30 -20 c28 -19 44 -61 23 -61 -6 0 -8
6 -5 13 3 7 -11 23 -32 36 -35 23 -36 23 -16 2 15 -18 17 -24 6 -31 -11 -6 -8
-11 10 -20 22 -12 22 -14 4 -20 -17 -6 -14 -10 21 -34 36 -26 37 -28 11 -22
-21 5 -27 4 -21 -5 4 -7 -3 -5 -17 4 -38 27 -47 19 -11 -9 18 -14 30 -29 27
-33 -2 -5 7 -13 21 -20 21 -9 23 -13 12 -25 -9 -10 -19 -11 -33 -4 -16 7 -16
5 4 -11 16 -15 19 -21 8 -21 -18 0 -27 -30 -22 -71 3 -24 0 -32 -20 -39 -22
-8 -42 2 -165 86 -137 92 -297 211 -332 246 -23 23 -67 33 -87 21 -9 -6 -19
-25 -22 -44 -11 -57 -55 -140 -116 -216 -18 -23 -33 -44 -33 -48 0 -8 -54 -89
-115 -175 -25 -36 -58 -83 -72 -105 -14 -22 -29 -42 -32 -45 -3 -3 -24 -32
-46 -64 -50 -74 -65 -89 -140 -133 -33 -19 -73 -48 -90 -63 -16 -16 -46 -31
-66 -35 l-37 -7 -11 52 c-14 64 -14 60 7 60 10 0 29 12 43 26 13 14 47 39 74
55 71 41 87 56 136 127 24 35 73 105 109 157 118 169 130 186 130 193 0 4 13
24 30 44 16 20 34 46 40 59 6 13 19 38 30 54 26 40 50 94 57 127 13 66 122
123 188 98 26 -10 32 -8 62 22 65 63 158 290 218 533 44 181 67 258 155 530
37 116 87 273 110 350 59 200 84 236 206 298 153 78 503 307 584 383 67 63
126 113 267 226 120 96 188 107 322 51 18 -8 83 -25 144 -39 61 -13 147 -40
191 -60 45 -19 86 -38 93 -41 8 -3 7 9 -4 37 -14 35 -15 50 -5 99 15 71 15
126 2 152 -7 12 -11 119 -12 277 -1 295 4 385 21 406 7 8 10 20 6 26 -14 22
52 190 83 212 11 7 33 36 50 64 17 27 49 64 71 82 23 18 42 44 46 61 3 16 26
69 50 118 35 72 51 93 87 116 23 15 53 30 65 33 12 3 25 14 28 25 7 22 145
162 202 205 23 17 63 37 90 43 51 13 177 57 206 72 9 5 37 12 62 16 33 4 58
17 95 49 29 24 58 44 67 44 8 0 27 8 41 18 49 34 100 52 144 52 23 1 66 7 93
14 56 15 175 14 278 -3z m5877 -26 c0 -23 -3 -25 -50 -25 l-50 0 0 -40 0 -40
50 0 c43 0 50 -3 50 -20 0 -19 -7 -20 -120 -20 -113 0 -120 1 -120 20 0 17 7
20 45 20 l45 0 0 40 0 40 -40 0 c-33 0 -40 3 -40 19 0 23 19 27 143 30 87 1
87 1 87 -24z m-5570 -175 c0 -5 -7 -10 -16 -10 -8 0 -12 5 -9 10 3 6 10 10 16
10 5 0 9 -4 9 -10z m-790 -20 c0 -8 -24 -20 -41 -20 -5 0 -9 5 -9 10 0 6 6 9
13 8 6 -2 11 2 10 9 -2 7 4 10 12 7 8 -4 15 -10 15 -14z m6168 -8 c3 -21 8
-22 98 -22 87 0 94 -1 94 -20 0 -19 -7 -20 -94 -20 -90 0 -95 -1 -98 -22 -2
-15 -10 -23 -23 -23 -17 0 -20 8 -23 54 -2 29 -1 60 2 68 9 22 41 11 44 -15z
m-4978 -43 c0 -5 -4 -9 -10 -9 -5 0 -10 7 -10 16 0 8 5 12 10 9 6 -3 10 -10
10 -16z m-1340 -43 c0 -3 -4 -8 -10 -11 -5 -3 -10 -1 -10 4 0 6 5 11 10 11 6
0 10 -2 10 -4z m10 -36 c0 -5 -2 -10 -4 -10 -3 0 -8 5 -11 10 -3 6 -1 10 4 10
6 0 11 -4 11 -10z m1547 -17 c-8 -7 -37 9 -31 19 3 5 12 4 20 -3 8 -6 13 -14
11 -16z m4912 -101 c32 -23 53 -81 44 -123 -3 -16 -19 -43 -35 -59 -74 -74
-194 -32 -205 72 -5 53 11 85 57 116 41 28 97 26 139 -6z m-4487 -264 c-7 -7
-12 -8 -12 -2 0 14 12 26 19 19 2 -3 -1 -11 -7 -17z m4338 2 c0 -19 7 -20 95
-20 95 0 95 0 95 -25 0 -25 0 -25 -95 -25 -89 0 -95 -1 -95 -21 0 -15 -5 -20
-22 -17 -21 3 -23 9 -26 66 -3 61 -2 62 23 62 18 0 25 -5 25 -20z m-4260 -15
c0 -8 -4 -15 -10 -15 -5 0 -7 7 -4 15 4 8 8 15 10 15 2 0 4 -7 4 -15z m1005
-96 c105 -35 84 -49 -81 -57 -112 -4 -254 11 -254 29 0 5 8 18 18 28 15 17 32
19 134 20 95 1 130 -3 183 -20z m-975 -9 c0 -5 -2 -10 -4 -10 -3 0 -8 5 -11
10 -3 6 -1 10 4 10 6 0 11 -4 11 -10z m4420 -117 c0 -22 -10 -34 -48 -58 l-47
-30 48 -3 c43 -3 47 -5 47 -28 l0 -25 -117 3 c-110 3 -118 4 -118 23 0 15 8
21 34 25 l35 5 -37 28 c-25 19 -37 36 -37 53 0 32 5 31 56 -11 23 -19 46 -35
51 -35 4 0 35 18 68 40 33 22 61 40 63 40 1 0 2 -12 2 -27z m-4313 -115 c-3
-8 -6 -5 -6 6 -1 11 2 17 5 13 3 -3 4 -12 1 -19z m63 -58 c-6 -11 -13 -20 -16
-20 -2 0 0 9 6 20 6 11 13 20 16 20 2 0 0 -9 -6 -20z m4065 -74 c-19 -44 -13
-68 22 -96 34 -27 69 -25 98 5 29 28 32 70 9 103 -12 18 -13 26 -4 37 19 23
27 18 50 -29 27 -56 20 -105 -21 -145 -104 -104 -266 31 -188 158 18 30 22 32
35 19 13 -12 13 -19 -1 -52z m-5730 -176 c4 -25 12 -40 21 -40 19 0 18 26 -1
34 -15 6 -10 36 7 36 15 0 35 -24 30 -38 -5 -15 14 -16 23 -1 4 6 13 8 20 5 8
-3 15 -1 17 4 2 6 9 6 17 0 12 -7 12 -11 2 -24 -19 -23 2 -20 29 4 13 12 29
19 34 16 47 -19 49 -19 41 -6 -5 9 -4 11 4 6 6 -4 9 -12 6 -17 -6 -9 8 -18 42
-24 10 -2 18 -4 18 -5 0 -1 9 -3 20 -5 11 -2 35 -6 53 -10 24 -5 39 -2 51 9
10 9 21 13 24 9 4 -3 7 -1 7 5 0 6 7 9 16 5 9 -3 20 0 25 8 7 11 9 10 10 -6 1
-11 1 -25 0 -31 -1 -7 6 -14 14 -18 9 -3 14 -2 11 3 -6 10 24 25 32 16 3 -3 0
-5 -6 -5 -6 0 -9 -7 -5 -16 5 -13 9 -11 22 9 13 20 20 23 39 16 14 -5 22 -5
22 3 0 7 5 6 15 -2 20 -16 19 -22 -6 -48 -11 -12 -18 -26 -15 -31 3 -5 -6 -12
-19 -15 -14 -4 -23 -11 -20 -16 3 -5 -2 -21 -11 -35 -9 -14 -12 -25 -7 -25 5
0 14 -12 21 -27 11 -26 11 -24 8 20 -2 26 0 47 5 47 5 0 9 -16 9 -35 l0 -35
25 16 c14 9 22 20 19 25 -3 5 6 14 20 21 14 6 26 17 26 24 0 8 6 11 15 7 10
-3 15 0 13 8 -2 9 4 13 16 11 13 -2 17 1 13 10 -4 11 5 14 40 12 46 -3 68 -13
46 -21 -7 -3 -13 -10 -13 -16 0 -7 -12 -20 -25 -30 -23 -17 -27 -17 -41 -2 -9
9 -19 13 -23 10 -3 -4 2 -11 12 -16 20 -12 23 -33 3 -26 -11 4 -14 -1 -12 -19
5 -44 37 -53 71 -18 12 11 26 19 33 16 7 -2 14 3 17 11 4 9 15 12 31 9 30 -5
32 -22 2 -22 -12 0 -19 -3 -15 -6 9 -9 -51 -56 -63 -49 -6 4 -9 3 -8 -2 2 -4
0 -8 -3 -8 -4 0 -16 -8 -26 -18 -20 -18 -33 -14 -33 10 0 8 4 11 10 8 6 -3 7
1 4 9 -3 9 -10 16 -14 16 -5 0 -11 9 -15 20 -5 16 -9 18 -25 8 -10 -7 -21 -22
-25 -35 -3 -13 -10 -23 -15 -23 -6 0 -10 -7 -10 -16 0 -8 5 -12 10 -9 20 12 9
-17 -12 -36 -13 -10 -18 -18 -11 -19 6 0 14 6 16 13 5 10 7 -4 7 -40 0 -5 -6
-8 -12 -8 -7 -1 -12 -7 -10 -14 2 -9 -4 -12 -17 -8 -13 3 -21 -1 -24 -13 -3
-13 0 -17 9 -13 8 3 14 1 14 -5 0 -5 -7 -12 -15 -16 -8 -3 -15 -10 -15 -16 0
-8 6 -8 20 0 16 9 18 8 14 -5 -4 -8 -10 -15 -15 -15 -5 0 -9 -4 -9 -10 0 -5 4
-9 9 -7 5 1 9 -2 9 -8 0 -5 -4 -9 -9 -8 -5 2 -9 -2 -9 -7 0 -5 7 -10 17 -10
14 0 15 -2 1 -17 -8 -10 -18 -26 -21 -35 -4 -10 -13 -18 -20 -18 -8 0 -21 -8
-28 -17 -15 -18 -16 -18 36 3 8 3 15 1 15 -5 0 -6 8 -8 18 -5 14 5 14 3 -2
-10 -16 -12 -22 -13 -28 -3 -5 8 -8 4 -8 -11 0 -18 -4 -22 -19 -17 -11 3 -22
1 -26 -4 -4 -7 1 -8 12 -4 16 6 16 5 4 -10 -11 -14 -11 -17 0 -17 8 -1 2 -8
-14 -16 -15 -8 -32 -12 -37 -9 -6 3 -10 0 -10 -9 0 -8 13 -17 31 -21 18 -4 28
-10 23 -14 -5 -3 -10 -17 -12 -30 -3 -29 -44 -89 -50 -72 -2 7 6 23 19 37 12
13 19 27 16 31 -4 3 -7 1 -7 -5 0 -7 -5 -12 -12 -12 -6 0 -3 9 7 20 14 16 16
23 7 32 -9 9 -12 9 -12 -1 0 -7 -4 -10 -9 -7 -5 3 -8 -8 -7 -25 1 -16 -1 -32
-6 -35 -4 -3 -8 -1 -8 5 0 6 -7 7 -17 4 -11 -4 -14 -3 -9 5 4 7 2 12 -3 12 -6
0 -11 -6 -11 -12 0 -10 -3 -9 -9 1 -6 9 -11 10 -15 2 -4 -6 -12 -11 -18 -11
-6 0 -5 7 3 17 13 15 12 15 -8 4 -26 -13 -21 -43 5 -34 14 5 15 4 4 -8 -10
-11 -16 -11 -33 0 -16 9 -24 10 -33 1 -8 -8 -7 -10 6 -5 13 5 17 2 15 -13 0
-11 -6 -18 -13 -15 -18 7 -54 -15 -54 -32 0 -8 7 -15 15 -15 14 0 14 -3 0 -24
-17 -25 -55 -26 -55 0 0 8 -6 11 -17 7 -14 -5 -12 1 7 23 l25 29 -26 -23 c-16
-14 -32 -20 -42 -16 -10 3 -17 2 -17 -4 0 -5 -8 -12 -17 -16 -10 -3 -24 -9
-32 -12 -8 -4 -11 -2 -7 4 4 6 -2 8 -14 5 -14 -4 -20 0 -20 11 0 9 5 16 11 16
5 0 7 5 3 11 -5 8 -9 7 -14 -1 -4 -7 -14 -10 -22 -8 -8 3 -25 0 -39 -8 -22
-12 -22 -13 -4 -14 l20 -1 -20 -8 c-24 -10 -55 4 -55 24 0 8 -4 15 -9 15 -16
0 -33 -29 -25 -42 6 -9 3 -9 -10 1 -10 8 -13 17 -7 20 10 7 -11 37 -43 61 -18
13 -19 13 -12 0 6 -13 5 -13 -6 0 -15 19 -48 15 -48 -5 0 -9 6 -12 15 -9 8 3
24 -1 37 -10 l23 -16 -30 3 c-71 10 -91 38 -43 63 24 12 28 18 17 25 -8 4 -24
6 -36 2 -15 -3 -23 -1 -23 7 0 8 -9 10 -27 6 -18 -4 -23 -3 -14 2 9 7 10 12 2
16 -15 10 -14 36 2 36 6 0 18 4 26 9 11 7 10 14 -5 37 -11 15 -13 25 -6 21 6
-5 12 -4 12 2 0 5 -5 13 -11 16 -6 4 -8 14 -4 23 3 9 3 13 -1 9 -4 -4 -14 -1
-22 6 -13 10 -14 9 -6 -3 13 -21 12 -59 -1 -64 -8 -3 -10 5 -7 20 2 13 0 24
-7 24 -5 0 -8 -8 -5 -17 4 -12 -1 -10 -14 6 l-20 25 6 -30 c5 -26 4 -28 -11
-15 -10 7 -17 10 -17 6 0 -4 -7 -2 -15 5 -9 7 -18 10 -22 6 -3 -3 -1 -6 5 -6
7 0 12 -5 12 -11 0 -6 -7 -9 -14 -6 -10 4 -13 1 -9 -9 3 -9 -1 -14 -12 -14
-11 0 -15 5 -11 15 3 8 -3 19 -14 25 -26 14 -30 13 -23 -7 4 -11 3 -14 -5 -9
-7 4 -10 17 -8 29 2 12 -1 28 -7 35 -7 9 -6 11 7 6 9 -3 16 -11 17 -18 0 -6 7
3 14 19 8 17 14 24 15 18 0 -7 4 -13 8 -13 5 0 8 14 7 30 -1 17 3 30 9 30 7 0
13 11 14 25 1 14 -3 25 -8 25 -5 0 -7 -7 -4 -15 4 -10 0 -15 -11 -15 -9 0 -14
4 -11 9 3 5 -1 14 -9 21 -13 10 -15 9 -15 -10 0 -17 -4 -21 -20 -17 -11 3 -18
1 -14 -4 3 -5 -2 -9 -10 -9 -10 0 -16 9 -17 23 -1 17 -2 18 -6 4 -3 -10 0 -24
7 -32 9 -10 7 -15 -9 -20 -26 -8 -49 4 -30 16 11 6 9 9 -5 15 -10 4 -13 10 -8
13 6 3 12 13 14 21 2 8 9 21 16 28 18 20 15 39 -8 45 -11 3 -20 1 -20 -4 0 -5
-3 -8 -7 -7 -5 2 -9 -1 -10 -5 -1 -4 -9 -15 -18 -24 -13 -13 -21 -13 -41 -4
-14 6 -22 16 -19 21 4 6 11 8 16 5 8 -5 14 10 7 18 -2 1 7 15 20 31 12 16 22
37 22 47 0 10 5 21 11 24 6 4 8 22 4 46 -5 27 -3 39 5 39 8 0 9 14 5 43 -4 26
0 61 9 92 8 27 13 51 11 54 -3 2 -5 -1 -5 -7 0 -7 -4 -12 -10 -12 -19 0 -10
21 12 29 17 6 28 2 47 -16 31 -28 41 -29 41 -3 0 23 8 25 34 5 17 -13 21 -12
40 13 11 15 20 31 18 35 -6 20 20 34 58 32 22 -1 43 -5 47 -8 9 -9 23 -9 22 1
-3 20 3 21 23 2 24 -22 39 -22 47 1 3 11 2 12 -11 1 -13 -10 -17 -10 -22 4
-11 28 -7 32 19 21 19 -9 24 -18 21 -32 -9 -37 7 -70 33 -71 l24 -1 -21 18
c-14 11 -22 28 -22 49 0 25 3 30 13 23 22 -18 73 12 80 46 9 45 34 39 42 -9z
m330 -20 c3 -5 -1 -10 -9 -10 -9 0 -16 5 -16 10 0 6 4 10 9 10 6 0 13 -4 16
-10z m5585 -15 c0 -18 -7 -26 -25 -31 -22 -6 -25 -11 -25 -55 0 -44 3 -49 25
-55 18 -4 25 -13 25 -30 0 -13 -3 -24 -7 -24 -11 0 -192 69 -216 81 -11 6 -17
19 -15 32 2 17 24 30 113 63 61 24 113 43 118 43 4 1 7 -10 7 -24z m-6280 0
c0 -8 -4 -15 -10 -15 -5 0 -7 7 -4 15 4 8 8 15 10 15 2 0 4 -7 4 -15z m-1249
-18 c-10 -9 -11 -8 -5 6 3 10 9 15 12 12 3 -3 0 -11 -7 -18z m1086 -23 c-3 -3
-12 -4 -19 -1 -8 3 -5 6 6 6 11 1 17 -2 13 -5z m67 -29 c3 -9 0 -15 -9 -15 -8
0 -15 7 -15 15 0 8 4 15 9 15 5 0 11 -7 15 -15z m-139 -64 c3 -11 3 -32 0 -48
-3 -15 -2 -22 1 -15 11 23 20 12 21 -28 1 -22 -3 -40 -8 -40 -5 0 -9 -6 -7
-14 3 -16 -51 -106 -63 -106 -13 0 -11 18 2 26 6 3 9 14 6 23 -2 10 2 26 9 35
7 10 10 24 7 32 -3 8 0 21 7 28 8 11 9 20 0 35 -8 16 -8 27 1 42 8 15 8 19 0
15 -12 -8 -15 16 -4 27 11 12 21 8 28 -12z m-289 -20 c-4 -5 0 -11 6 -14 7 -2
10 -8 6 -12 -8 -9 -38 12 -38 26 0 5 7 9 16 9 8 0 13 -4 10 -9z m1918 -22 c-3
-5 -10 -7 -15 -3 -5 3 -7 10 -3 15 3 5 10 7 15 3 5 -3 7 -10 3 -15z m136 11
c0 -5 -5 -10 -11 -10 -5 0 -7 5 -4 10 3 6 8 10 11 10 2 0 4 -4 4 -10z m50 -10
c0 -5 -4 -10 -10 -10 -5 0 -10 5 -10 10 0 6 5 10 10 10 6 0 10 -4 10 -10z
m-2193 -40 c11 -16 9 -22 -10 -36 -15 -11 -16 -15 -4 -11 11 4 17 1 17 -9 0
-9 -7 -14 -17 -12 -11 2 -17 11 -15 23 2 11 3 30 3 43 -1 27 10 28 26 2z m313
10 c0 -5 -4 -10 -10 -10 -5 0 -10 5 -10 10 0 6 5 10 10 10 6 0 10 -4 10 -10z
m-210 -22 c0 -4 -3 -8 -8 -8 -4 0 -7 -13 -7 -29 -1 -16 3 -27 7 -25 4 3 8 -6
8 -20 0 -14 -4 -28 -10 -31 -5 -3 -10 -15 -10 -26 0 -10 -6 -18 -12 -16 -7 1
-12 -4 -10 -10 1 -7 -5 -13 -13 -13 -10 0 -14 9 -12 30 1 16 5 30 10 30 4 0 7
7 7 15 0 41 22 112 35 112 8 0 15 -4 15 -9z m2230 8 c0 -3 -4 -8 -10 -11 -5
-3 -10 -1 -10 4 0 6 5 11 10 11 6 0 10 -2 10 -4z m4560 -51 l0 -55 -121 0
c-119 0 -120 0 -117 23 3 21 8 22 101 25 l97 3 0 29 c0 23 4 30 20 30 18 0 20
-7 20 -55z m-6580 22 c0 -2 -11 -27 -25 -55 -14 -29 -25 -57 -25 -64 0 -6 -3
-8 -7 -5 -3 4 -15 -1 -27 -10 -15 -14 -13 -9 6 17 14 19 34 54 44 78 10 23 21
42 26 42 4 0 8 -1 8 -3z m1865 -18 c5 -5 17 -9 27 -9 10 0 18 -7 18 -15 0 -20
-5 -19 -40 6 -16 12 -35 19 -42 16 -8 -2 -22 1 -32 9 -17 12 -14 12 20 7 22
-3 43 -10 49 -14z m165 17 c0 -3 -4 -8 -10 -11 -5 -3 -10 -1 -10 4 0 6 5 11
10 11 6 0 10 -2 10 -4z m-2358 -95 c2 -17 1 -29 -3 -28 -4 1 -16 -9 -28 -22
-12 -13 -24 -21 -27 -18 -9 9 24 57 39 57 8 0 8 3 -2 9 -7 5 -10 14 -7 20 12
19 24 12 28 -18z m1769 17 c0 -10 2 -10 6 0 2 6 11 12 19 12 11 0 10 -5 -6
-22 -11 -12 -20 -26 -20 -30 0 -5 -4 -7 -8 -4 -5 3 -9 -8 -9 -23 0 -16 -7 -37
-16 -46 -20 -20 -21 -27 -5 -43 9 -9 10 -15 2 -20 -6 -4 -15 -18 -19 -31 -6
-19 -4 -23 8 -18 12 4 12 1 3 -19 -6 -13 -17 -22 -23 -19 -7 2 -20 -6 -29 -20
-8 -13 -24 -23 -35 -22 -24 2 -24 2 2 44 15 23 19 43 16 63 -4 18 -1 32 8 40
8 6 11 18 8 26 -5 13 8 19 31 15 5 -1 4 5 -3 13 -8 9 -10 23 -6 33 5 10 7 22
6 26 -1 5 8 11 19 14 18 5 24 15 21 36 0 4 6 7 14 7 8 0 15 -6 16 -12z m523
-3 c-4 -8 -7 -15 -9 -15 -2 0 -5 7 -9 15 -3 9 0 15 9 15 9 0 12 -6 9 -15z
m-400 -6 c4 6 12 11 18 11 6 0 6 -6 -2 -15 -7 -9 -18 -14 -24 -12 -6 2 -19 -5
-28 -16 -10 -11 -18 -17 -18 -13 0 16 35 53 41 44 4 -7 9 -6 13 1z m340 -21
c13 1 17 -4 13 -19 -4 -14 -1 -19 11 -17 10 2 16 -3 14 -11 -2 -8 3 -18 10
-22 7 -4 10 -10 8 -13 -3 -2 -30 18 -60 47 -30 28 -46 47 -35 43 11 -5 28 -8
39 -8z m4650 -29 c22 -18 26 -28 26 -75 l0 -54 -121 0 -122 0 6 45 c2 25 13
55 22 65 19 21 60 27 70 10 4 -6 16 -3 32 10 33 25 54 25 87 -1z m-5039 -28
c-3 -6 -11 -11 -17 -11 -6 0 -6 6 2 15 14 17 26 13 15 -4z m-1535 -17 c0 -8
-5 -12 -10 -9 -6 4 -8 11 -5 16 9 14 15 11 15 -7z m-400 -24 c-8 -5 -17 -7
-19 -4 -3 3 1 9 9 14 8 5 17 7 19 4 3 -3 -1 -9 -9 -14z m140 4 c11 -12 11 -15
0 -12 -8 2 -15 -3 -16 -9 -3 -27 -5 -28 -15 -10 -8 13 -7 22 1 33 15 17 15 17
30 -2z m1762 -14 c-17 -20 -27 -26 -19 -12 2 4 7 15 10 25 4 10 11 16 17 12 5
-3 2 -14 -8 -25z m588 0 c0 -5 -2 -10 -4 -10 -3 0 -8 5 -11 10 -3 6 -1 10 4
10 6 0 11 -4 11 -10z m-2397 -36 c-3 -8 -8 -12 -11 -9 -8 8 -42 -26 -42 -43 0
-9 -6 -12 -16 -8 -14 5 -15 4 -5 -8 8 -10 9 -16 1 -21 -5 -3 -10 -1 -10 5 0 7
-7 9 -17 6 -9 -4 3 15 28 42 24 26 47 47 52 45 4 -2 7 1 7 7 0 6 4 9 10 5 5
-3 7 -12 3 -21z m187 6 c0 -5 -4 -10 -10 -10 -5 0 -10 5 -10 10 0 6 5 10 10
10 6 0 10 -4 10 -10z m2087 -5 c0 -17 -13 -20 -21 -6 -4 5 0 12 6 14 7 3 13 6
14 6 0 1 1 -6 1 -14z m-477 -21 c0 -8 -4 -12 -10 -9 -5 3 -10 13 -10 21 0 8 5
12 10 9 6 -3 10 -13 10 -21z m-1660 1 c-7 -8 -17 -15 -22 -15 -6 0 -5 7 2 15
7 8 17 15 22 15 6 0 5 -7 -2 -15z m2193 -31 c-3 -9 0 -20 8 -24 7 -5 10 -13 5
-17 -12 -12 -35 25 -29 47 3 11 9 17 14 15 4 -3 5 -13 2 -21z m-536 -23 c1
-19 -4 -31 -14 -35 -13 -5 -14 -4 -3 9 7 8 8 15 3 15 -5 0 -9 9 -10 20 -1 11
4 20 10 20 7 0 13 -13 14 -29z m624 -18 c13 -16 12 -17 -3 -4 -10 7 -18 15
-18 17 0 8 8 3 21 -13z m-2551 -2 c0 -17 -18 -21 -24 -6 -3 9 0 15 9 15 8 0
15 -4 15 -9z m2546 -40 c-4 -6 -13 -11 -19 -10 -8 0 -8 2 1 6 10 4 9 11 -4 31
l-16 27 22 -21 c12 -12 19 -27 16 -33z m-2576 19 c6 -11 8 -20 6 -20 -3 0 -10
9 -16 20 -6 11 -8 20 -6 20 3 0 10 -9 16 -20z m583 -3 c-5 -9 -3 -9 8 -1 10 9
21 9 39 1 l25 -11 -30 -4 c-16 -2 -33 -9 -37 -15 -4 -7 -8 -8 -9 -2 -6 40 -5
54 3 49 4 -3 5 -11 1 -17z m1315 -9 c3 -13 -3 -18 -20 -17 -13 0 -17 3 -10 6
6 2 12 9 12 14 0 4 -7 6 -15 3 -8 -4 -15 -12 -15 -20 0 -8 -4 -14 -10 -14 -13
0 -13 6 1 31 13 25 52 22 57 -3z m-1608 2 c0 -5 -5 -10 -11 -10 -5 0 -7 5 -4
10 3 6 8 10 11 10 2 0 4 -4 4 -10z m250 -20 c0 -5 -4 -10 -10 -10 -5 0 -10 5
-10 10 0 6 5 10 10 10 6 0 10 -4 10 -10z m1350 -34 c0 -8 -4 -17 -8 -20 -4 -2
-8 4 -8 15 0 10 4 19 8 19 4 0 8 -6 8 -14z m651 -13 c13 -16 12 -17 -3 -4 -10
7 -18 15 -18 17 0 8 8 3 21 -13z m-2461 -17 c0 -2 -7 -6 -15 -10 -8 -3 -15 -1
-15 4 0 6 7 10 15 10 8 0 15 -2 15 -4z m1820 -17 c-7 -11 -14 -18 -17 -15 -3
3 0 12 7 21 18 21 23 19 10 -6z m635 11 c3 -5 -1 -10 -10 -10 -9 0 -13 5 -10
10 3 6 8 10 10 10 2 0 7 -4 10 -10z m-1840 -20 c3 -5 2 -10 -4 -10 -5 0 -13 5
-16 10 -3 6 -2 10 4 10 5 0 13 -4 16 -10z m1960 -10 c3 -5 1 -10 -4 -10 -6 0
-11 5 -11 10 0 6 2 10 4 10 3 0 8 -4 11 -10z m-925 -20 c-8 -5 -17 -7 -19 -4
-3 3 1 9 9 14 8 5 17 7 19 4 3 -3 -1 -9 -9 -14z m-1025 0 c-3 -5 -12 -10 -18
-10 -7 0 -6 4 3 10 19 12 23 12 15 0z m1192 4 c-3 -3 -12 -4 -19 -1 -8 3 -5 6
6 6 11 1 17 -2 13 -5z m713 -16 c0 -6 -6 -5 -15 2 -8 7 -15 14 -15 16 0 2 7 1
15 -2 8 -4 15 -11 15 -16z m-670 -32 c0 -3 -4 -8 -10 -11 -5 -3 -10 -1 -10 4
0 6 5 11 10 11 6 0 10 -2 10 -4z m-193 -46 c-14 -11 -29 -20 -34 -20 -11 1 37
40 49 40 6 0 -1 -9 -15 -20z m90 5 c0 -8 -4 -12 -9 -9 -5 3 -6 10 -3 15 9 13
12 11 12 -6z m868 -5 c3 -5 -1 -10 -9 -10 -9 0 -16 5 -16 10 0 6 4 10 9 10 6
0 13 -4 16 -10z m-2735 -10 c0 -5 -2 -10 -4 -10 -3 0 -8 5 -11 10 -3 6 -1 10
4 10 6 0 11 -4 11 -10z m-22 -12 c8 -10 4 -13 -14 -14 -20 -2 -23 1 -13 12 14
17 14 17 27 2z m1689 -13 c-7 -14 -18 -25 -25 -25 -7 0 -10 5 -7 10 3 6 0 10
-7 10 -7 0 -2 7 12 14 36 20 39 19 27 -9z m588 15 c-3 -5 -11 -10 -16 -10 -6
0 -7 5 -4 10 3 6 11 10 16 10 6 0 7 -4 4 -10z m463 -21 c-20 -13 -28 -11 -22
5 3 8 12 12 21 9 12 -5 12 -7 1 -14z m-41 -2 c-5 -12 17 -40 25 -31 3 2 4 -5
3 -16 -1 -11 -5 -23 -10 -27 -4 -5 -5 -3 -2 3 4 6 -2 19 -13 29 -11 10 -20 13
-20 7 0 -6 4 -13 8 -16 5 -3 7 -18 4 -34 -5 -34 -37 -58 -56 -43 -7 6 -17 7
-21 3 -5 -4 -5 -1 -1 6 4 6 2 12 -3 12 -6 0 -11 -7 -11 -15 0 -8 5 -15 10 -15
6 0 10 -4 10 -8 0 -5 -7 -9 -15 -9 -8 0 -15 9 -15 19 0 10 -5 18 -11 18 -6 0
-4 7 5 15 8 8 19 15 24 15 6 0 13 6 16 13 3 7 5 7 3 -3 -1 -8 3 -16 8 -18 6
-1 11 6 13 18 2 11 8 17 14 14 6 -4 8 -3 5 3 -8 12 14 73 26 73 5 0 7 -6 4
-13z m-787 -11 c0 -3 -4 -8 -10 -11 -5 -3 -10 -1 -10 4 0 6 5 11 10 11 6 0 10
-2 10 -4z m-344 -18 c4 -7 3 -8 -4 -4 -7 4 -12 2 -12 -3 0 -6 -8 -11 -17 -11
-16 1 -16 2 1 15 24 18 23 18 32 3z m91 -26 c1 -10 -8 -24 -20 -31 -22 -14
-22 -14 -3 8 12 13 14 21 7 21 -7 0 -9 5 -6 10 10 16 21 12 22 -8z m273 8 c0
-5 -4 -10 -10 -10 -5 0 -10 5 -10 10 0 6 5 10 10 10 6 0 10 -4 10 -10z m-1906
-32 c-9 -14 -23 2 -17 18 4 12 8 13 14 3 4 -7 5 -17 3 -21z m1586 14 c-8 -3
-24 -12 -35 -21 -14 -11 -13 -8 4 11 13 15 29 24 34 21 7 -4 6 -8 -3 -11z
m101 4 c-9 -11 -9 -15 0 -18 7 -2 0 -12 -15 -21 -24 -16 -37 -11 -18 7 4 4 8
12 8 17 1 5 2 14 3 19 0 6 8 10 17 10 13 0 14 -3 5 -14z m-760 -33 c13 -16 12
-17 -3 -4 -10 7 -18 15 -18 17 0 8 8 3 21 -13z m499 -3 c0 -5 -7 -7 -15 -4 -8
4 -12 10 -9 15 6 11 24 2 24 -11z m146 -5 c-9 -9 -16 -13 -16 -8 0 12 22 34
28 28 2 -2 -3 -11 -12 -20z m-816 0 c0 -8 -4 -15 -8 -15 -5 0 -9 7 -9 15 0 8
4 15 9 15 4 0 8 -7 8 -15z m304 -10 c10 -8 23 -12 28 -9 10 7 74 -21 83 -36 8
-13 -18 -13 -52 2 -15 6 -31 11 -34 10 -3 0 -18 10 -34 24 -30 26 -23 33 9 9z
m306 5 c0 -5 -4 -10 -10 -10 -5 0 -10 5 -10 10 0 6 5 10 10 10 6 0 10 -4 10
-10z m180 -5 c0 -2 -10 -9 -22 -15 -22 -11 -22 -10 -4 4 21 17 26 19 26 11z
m-353 -12 c-4 -3 8 -17 26 -31 17 -14 24 -22 15 -19 -10 4 -18 2 -18 -3 0 -5
-13 3 -29 17 -30 29 -32 43 -4 43 9 0 13 -3 10 -7z m233 -13 c0 -5 -6 -10 -14
-10 -8 0 -18 5 -21 10 -3 6 3 10 14 10 12 0 21 -4 21 -10z m180 6 c0 -3 -4 -8
-10 -11 -5 -3 -10 -1 -10 4 0 6 5 11 10 11 6 0 10 -2 10 -4z m184 -27 c-3 -5
-20 -16 -37 -23 l-32 -14 28 -1 c17 -1 26 -5 22 -11 -4 -6 -15 -8 -24 -5 -21
6 -51 -3 -51 -16 0 -4 8 -5 18 -2 15 6 15 5 3 -11 -12 -15 -29 -17 -100 -16
-47 1 -89 1 -93 0 -20 -5 -55 -3 -65 3 -6 4 -14 3 -18 -3 -3 -5 -12 -10 -18
-10 -7 0 -6 4 3 10 9 6 10 10 3 10 -6 0 -15 -5 -18 -10 -8 -13 -25 -3 -25 14
0 7 9 22 20 34 23 24 16 27 -26 12 -27 -11 -44 -1 -44 25 0 6 4 4 8 -3 7 -10
14 -10 37 2 21 11 34 12 47 5 19 -10 19 -12 2 -37 -16 -25 -16 -26 -1 -13 10
8 20 11 24 7 3 -3 16 0 27 7 28 18 99 10 92 -10 -3 -8 -2 -12 3 -8 5 3 11 -1
14 -7 3 -10 8 -9 22 2 14 11 19 12 22 2 4 -9 12 -7 30 8 14 11 31 20 37 20 6
0 25 13 41 29 27 25 63 33 49 10z m-874 -31 c0 4 -5 13 -12 20 -9 9 -8 12 4
12 9 0 18 -7 22 -15 3 -8 12 -12 21 -9 8 4 22 1 30 -6 8 -6 18 -9 23 -6 5 3
17 -3 26 -13 10 -11 34 -22 54 -26 20 -3 46 -9 56 -12 14 -4 18 -1 13 11 -8
20 -3 20 29 0 23 -15 24 -15 18 1 -6 14 -4 16 12 7 21 -11 53 -10 72 2 6 4 12
3 12 -2 0 -5 7 -9 16 -9 11 0 14 7 10 21 -4 19 -3 18 15 -4 10 -14 23 -30 28
-36 5 -7 -7 -10 -40 -11 -27 0 -46 4 -43 8 3 5 -2 9 -11 9 -9 0 -13 -4 -10
-10 3 -5 -4 -11 -17 -11 -13 -1 -40 -3 -61 -4 -21 -1 -40 2 -43 6 -3 5 -10 9
-15 9 -6 0 -7 -4 -4 -10 4 -6 -16 -11 -52 -12 -32 0 -111 -2 -177 -4 -65 -1
-124 -5 -132 -8 -8 -3 -14 -1 -14 3 0 5 6 12 13 14 7 3 4 6 -6 6 -10 1 -15 5
-12 11 3 5 19 8 35 6 22 -2 27 0 23 13 -5 13 -3 14 8 4 18 -18 34 -16 20 1 -9
11 -9 15 1 20 7 3 2 3 -12 0 -14 -4 -26 -10 -28 -14 -4 -10 -59 17 -68 32 -4
6 -2 8 4 4 6 -3 13 -2 17 4 9 14 58 13 73 -2 9 -9 12 -9 12 1 0 11 3 11 15 1
9 -7 18 -10 21 -7 3 3 -3 12 -15 19 -42 26 -20 29 24 4 25 -15 45 -23 45 -18z
m916 22 c8 0 14 -4 14 -10 0 -5 7 -10 15 -10 8 0 12 -6 9 -14 -3 -8 3 -16 15
-19 12 -3 21 -10 21 -16 0 -15 -20 -14 -20 2 0 7 -4 6 -10 -4 -7 -12 -19 -14
-59 -9 -27 3 -60 2 -73 -2 -23 -8 -23 -8 2 12 28 22 36 24 45 10 3 -5 11 -10
16 -10 6 0 3 10 -5 22 -9 12 -16 27 -16 33 0 5 5 3 10 -5 7 -12 10 -8 11 15 0
17 3 24 6 18 2 -7 11 -13 19 -13z m-1181 0 c-3 -5 -12 -7 -20 -3 -21 7 -19 13
6 13 11 0 18 -4 14 -10z m2056 -29 c-9 -6 -9 -15 -1 -35 9 -25 8 -27 -7 -21
-10 4 -33 13 -52 20 -33 12 -33 13 -11 20 18 6 20 9 9 16 -8 5 -11 9 -7 9 3 0
14 3 24 7 13 5 16 3 11 -10 -9 -25 6 -21 22 6 10 16 16 18 19 8 2 -7 -1 -17
-7 -20z m-2122 -15 c-3 -3 -11 5 -18 17 -13 21 -12 21 5 5 10 -10 16 -20 13
-22z m555 13 c-8 -13 -30 -11 -43 4 -8 11 -5 13 19 9 16 -2 27 -8 24 -13z
m346 11 c0 -5 -8 -10 -17 -10 -15 0 -16 2 -3 10 19 12 20 12 20 0z m170 -6 c0
-8 -5 -12 -10 -9 -6 4 -8 11 -5 16 9 14 15 11 15 -7z m457 1 c0 -6 -8 -11 -18
-11 -9 0 -15 5 -12 11 2 7 10 12 17 12 7 0 13 -5 13 -12z m59 5 c8 0 14 -6 14
-14 0 -25 30 -27 40 -3 7 17 9 18 9 5 1 -10 8 -18 16 -18 8 0 15 -4 15 -8 0
-5 -31 -9 -69 -9 l-68 0 -1 29 c-1 23 3 28 14 24 9 -3 22 -6 30 -6z m-1096
-15 c0 -8 -4 -15 -10 -15 -5 0 -10 7 -10 15 0 8 5 15 10 15 6 0 10 -7 10 -15z
m230 5 c0 -5 -4 -10 -9 -10 -6 0 -13 5 -16 10 -3 6 1 10 9 10 9 0 16 -4 16
-10z m320 0 c0 -5 -8 -10 -17 -10 -15 0 -16 2 -3 10 19 12 20 12 20 0z m-243
-27 c-9 -9 -20 -13 -24 -9 -4 4 -1 11 7 16 25 16 35 11 17 -7z m-824 -29 c-4
-11 -8 -12 -19 -3 -12 10 -13 8 -5 -13 9 -23 7 -25 -16 -25 -15 0 -20 2 -13 7
7 4 10 14 8 21 -3 8 4 19 16 26 25 13 37 8 29 -13z m161 17 c3 -5 -2 -15 -11
-22 -12 -10 -14 -10 -9 -1 4 7 1 12 -9 12 -9 0 -13 5 -10 10 8 12 32 13 39 1z
m-742 -47 c-3 -18 -7 -22 -13 -13 -6 11 -9 10 -14 -2 -3 -8 -15 -15 -26 -16
-16 -2 -11 5 18 27 21 16 39 29 39 29 1 1 -1 -11 -4 -25z m673 -6 c6 -4 2 -8
-7 -8 -10 0 -18 7 -18 17 0 9 3 12 8 7 4 -5 12 -12 17 -16z m2640 -38 c-10
-11 -23 -20 -28 -20 -6 0 -2 9 8 20 10 11 23 20 28 20 6 0 2 -9 -8 -20z
m-1177 3 c-26 -2 -71 -2 -100 0 -29 2 -8 3 47 3 55 0 79 -1 53 -3z m529 -9 c8
-21 -13 -42 -28 -27 -13 13 -5 43 11 43 6 0 13 -7 17 -16z m-839 -1 c-32 -2
-84 -2 -115 0 -32 2 -6 3 57 3 63 0 89 -1 58 -3z m-290 -10 c-32 -2 -86 -2
-120 0 -35 2 -9 3 57 3 66 0 94 -1 63 -3z m-318 -13 c-139 -10 -364 -9 -295 0
28 4 129 7 225 7 161 0 167 -1 70 -7z m1720 0 c0 -5 -9 -10 -19 -10 -11 0 -23
5 -26 10 -4 6 5 10 19 10 14 0 26 -4 26 -10z m-3011 -59 c1 -38 -11 -16 -15
26 -2 29 -1 33 6 18 5 -11 9 -31 9 -44z m936 49 c-3 -5 -25 -9 -48 -8 l-42 1
45 7 c25 4 46 8 48 8 2 1 0 -2 -3 -8z m-725 -69 c0 -3 -4 -12 -9 -20 -8 -12
-12 -12 -25 -2 -12 10 -13 18 -5 33 8 15 13 17 25 7 8 -6 14 -14 14 -18z
m-160 -52 c0 -40 -32 -37 -37 4 -3 22 0 27 17 27 16 0 20 -6 20 -31z m0 -183
c0 -57 -13 -82 -24 -43 -8 30 -8 82 1 90 16 17 23 3 23 -47z m-30 -86 c0 -5
-4 -10 -10 -10 -5 0 -10 5 -10 10 0 6 5 10 10 10 6 0 10 -4 10 -10z m2744 -9
c3 -4 0 -16 -7 -25 -12 -16 -14 -16 -26 -2 -7 8 -10 20 -6 26 8 12 32 13 39 1z
m-1151 -46 c4 -8 2 -17 -3 -20 -6 -4 -10 3 -10 14 0 25 6 27 13 6z m-273 -21
c0 -8 -5 -12 -10 -9 -6 4 -8 11 -5 16 9 14 15 11 15 -7z m-1120 -33 c0 -11 -4
-22 -8 -25 -14 -9 -35 12 -29 28 9 23 37 20 37 -3z m2690 -2 c0 -6 -4 -7 -10
-4 -5 3 -10 11 -10 16 0 6 5 7 10 4 6 -3 10 -11 10 -16z m36 -46 c-7 -7 -26 7
-26 19 0 6 6 6 15 -2 9 -7 13 -15 11 -17z m-1502 -14 c-4 -8 1 -9 16 -4 15 5
25 2 31 -6 6 -10 9 -11 9 -1 0 6 4 12 10 12 5 0 7 -6 4 -14 -3 -8 3 -16 16
-19 11 -3 20 -9 19 -14 -4 -14 20 -63 30 -63 16 0 23 -38 10 -62 -9 -19 -9
-21 2 -10 15 14 33 16 24 2 -3 -5 0 -18 7 -30 10 -16 10 -24 1 -40 -9 -13 -9
-21 -2 -26 6 -4 15 -1 19 6 4 7 13 9 19 6 14 -9 15 -83 1 -91 -5 -3 -10 -12
-10 -18 0 -8 3 -8 8 -2 4 6 19 11 34 12 20 0 27 -5 31 -23 2 -14 2 -22 -1 -19
-5 5 -31 -60 -32 -77 0 -19 16 -5 28 22 16 36 32 39 32 6 0 -28 25 -54 33 -34
2 7 13 -6 23 -29 18 -41 44 -63 29 -25 -4 12 -3 14 5 6 19 -19 41 -104 27
-104 -8 0 -8 -3 1 -9 8 -4 12 -19 11 -32 -2 -13 1 -30 5 -38 7 -11 3 -13 -22
-8 -31 6 -52 -6 -32 -18 6 -4 8 -11 5 -16 -9 -13 -57 1 -78 22 -20 21 -32 25
-21 8 6 -10 -11 -28 -27 -29 -11 0 -49 37 -49 48 0 21 -30 0 -36 -24 -7 -26
-38 -49 -54 -39 -17 10 -62 -27 -57 -47 3 -10 0 -18 -7 -18 -20 0 -15 33 8 58
17 19 17 22 3 16 -9 -3 -17 -10 -17 -15 0 -5 -13 -6 -30 -2 -19 3 -30 1 -30
-6 0 -6 -4 -11 -10 -11 -5 0 -10 7 -10 16 0 8 -5 12 -11 9 -6 -4 -16 1 -23 11
-7 9 -20 15 -28 11 -9 -3 -21 0 -27 6 -9 9 -14 9 -20 -2 -5 -7 -21 -13 -35
-13 -22 0 -24 -3 -14 -15 10 -12 7 -13 -15 -8 -32 8 -67 -2 -67 -19 0 -20 -49
-8 -87 21 -32 23 -47 73 -23 73 6 0 10 20 10 44 0 37 6 50 40 87 22 24 40 41
40 37 0 -4 9 0 19 9 11 9 18 20 15 25 -3 4 5 8 18 9 13 0 18 3 11 5 -7 3 -9
12 -6 20 3 8 1 14 -4 14 -6 0 -15 11 -21 24 -9 19 -8 27 4 36 9 8 14 9 14 2 0
-6 -5 -13 -10 -15 -6 -3 -5 -4 2 -3 7 1 17 12 23 24 7 15 15 20 31 16 16 -4
23 0 27 18 4 13 4 34 0 46 -7 27 12 52 41 52 17 0 18 2 6 10 -12 8 -13 12 -2
19 11 7 11 11 -1 22 -16 17 -11 38 15 61 11 9 17 22 13 27 -3 6 3 18 15 28 11
10 20 26 20 36 0 10 12 29 28 42 30 27 36 30 26 14z m2023 -41 c-3 -8 -6 -5
-6 6 -1 11 2 17 5 13 3 -3 4 -12 1 -19z m-547 2 c0 -5 -4 -10 -10 -10 -5 0
-10 5 -10 10 0 6 5 10 10 10 6 0 10 -4 10 -10z m-4199 -12 c-23 -6 -37 -6 -44
1 -8 8 2 11 34 10 l44 -1 -34 -10z m4825 -85 c62 -71 63 -73 15 -28 -49 47
-98 105 -88 105 3 0 35 -35 73 -77z m-4156 37 c-12 -16 -24 -30 -26 -30 -3 0
3 14 13 30 9 17 21 30 26 30 5 0 -1 -13 -13 -30z m233 -8 c20 -18 24 -40 3
-23 -7 6 -20 9 -28 6 -9 -4 -28 5 -44 19 l-29 25 40 -6 c22 -3 48 -13 58 -21z
m-263 -36 c0 -2 -8 -10 -17 -17 -16 -13 -17 -12 -4 4 13 16 21 21 21 13z m-40
-55 c-5 -11 -15 -23 -22 -27 -7 -5 -8 -2 -3 7 21 37 44 55 25 20z m151 -33
c19 -18 34 -35 34 -38 1 -3 7 -16 14 -28 18 -33 8 -38 -30 -16 -34 20 -75 86
-64 104 9 14 8 14 46 -22z m73 17 c16 -12 17 -15 4 -15 -8 0 -21 7 -28 15 -16
19 -1 19 24 0z m-794 1 c0 -3 -4 -8 -10 -11 -5 -3 -10 -1 -10 4 0 6 5 11 10
11 6 0 10 -2 10 -4z m90 -56 c0 -5 -4 -10 -10 -10 -5 0 -10 5 -10 10 0 6 5 10
10 10 6 0 10 -4 10 -10z m110 -42 c0 -6 -6 -5 -15 2 -8 7 -15 14 -15 16 0 2 7
1 15 -2 8 -4 15 -11 15 -16z m-2577 -164 c122 -75 256 -157 297 -182 101 -61
110 -70 110 -107 0 -44 -29 -78 -66 -78 -26 0 -173 86 -549 322 -18 11 -46 -4
-265 -139 -314 -196 -305 -191 -340 -179 -15 6 -35 25 -45 43 -17 31 -17 35
-2 56 14 21 609 398 630 399 4 1 108 -60 230 -135z m2537 116 c0 -5 -2 -10 -4
-10 -3 0 -8 5 -11 10 -3 6 -1 10 4 10 6 0 11 -4 11 -10z m5646 -21 c3 -6 0
-17 -7 -25 -12 -11 -14 -9 -15 11 -2 26 10 33 22 14z m-2642 -230 c-4 -8 1 -9
17 -5 20 6 21 5 6 -4 -19 -12 -41 -4 -32 11 4 5 8 9 11 9 3 0 2 -5 -2 -11z
m179 -11 c-2 -5 -9 -8 -15 -8 -6 0 -20 -8 -31 -17 -19 -17 -20 -17 -9 3 6 12
9 24 6 26 -2 3 9 5 25 4 16 -1 27 -4 24 -8z m50 -22 c-3 -6 4 -2 18 9 18 15
20 16 10 3 -10 -13 -10 -18 -2 -18 7 0 9 -5 4 -12 -13 -21 -12 -37 3 -49 10
-8 14 -8 14 0 0 6 -5 11 -10 11 -6 0 -5 8 2 20 7 11 19 18 27 15 8 -3 18 -1
21 6 5 6 9 3 12 -9 4 -12 -4 -30 -18 -47 -13 -15 -24 -30 -26 -35 -2 -4 -23
-17 -48 -29 -25 -12 -37 -19 -28 -17 10 3 20 1 23 -4 4 -6 1 -10 -4 -10 -19 0
-12 -18 10 -23 13 -4 18 -10 14 -18 -6 -8 -1 -11 18 -7 23 4 24 3 15 -18 -10
-22 -38 -23 -38 -1 0 6 -3 7 -6 4 -4 -4 -2 -13 5 -21 9 -11 8 -15 -4 -20 -8
-3 -22 -3 -31 1 -12 4 -15 2 -12 -8 2 -7 15 -16 29 -20 21 -5 22 -7 7 -14 -10
-4 -25 -4 -34 -1 -12 4 -15 2 -10 -9 3 -8 1 -15 -4 -15 -6 0 -10 6 -10 13 -1
6 -7 1 -15 -13 -8 -14 -14 -19 -15 -11 0 9 -6 11 -17 6 -10 -4 -34 -8 -53 -9
-24 -1 -35 -6 -35 -16 0 -8 -4 -18 -10 -22 -6 -4 -2 -8 8 -8 10 0 15 -4 12
-10 -3 -5 -13 -10 -22 -10 -15 0 -15 25 -1 70 3 8 3 12 1 7 -3 -4 -9 -5 -14
-2 -5 4 -6 -2 -2 -12 5 -15 4 -16 -8 -7 -8 6 -24 10 -36 9 -13 -1 -23 2 -23 7
0 4 9 8 20 8 17 0 19 2 8 14 -8 9 -17 11 -24 5 -8 -6 -14 -4 -18 6 -4 10 1 15
14 15 12 0 20 7 21 18 0 15 1 15 7 1 7 -16 10 -16 45 -1 20 9 37 21 37 26 0 5
-3 6 -7 3 -3 -4 -12 -2 -18 3 -8 7 -21 7 -38 1 -21 -8 -25 -7 -20 5 4 10 0 13
-13 8 -14 -4 -15 -3 -6 3 7 6 12 14 11 19 -2 5 5 27 15 49 9 22 17 65 17 96 1
55 1 56 26 51 25 -5 25 -6 8 -18 -18 -13 -17 -14 8 -14 19 0 25 -4 21 -15 -4
-9 0 -15 9 -15 9 0 22 -6 29 -13 16 -15 108 -20 108 -5 0 6 -7 8 -15 4 -8 -3
-25 -1 -37 4 -13 5 -17 9 -10 9 6 1 12 8 12 17 0 8 -4 13 -9 9 -5 -3 -13 0
-16 5 -8 12 22 50 39 50 6 0 5 -5 -2 -12 -7 -7 -12 -16 -12 -21 0 -5 9 1 20
14 11 14 19 18 20 11 0 -7 5 -10 11 -7 6 4 8 13 5 21 -3 8 0 11 9 7 8 -3 12
-10 8 -17z m160 -11 c-3 -9 -8 -14 -10 -11 -3 3 -2 9 2 15 9 16 15 13 8 -4z
m-6094 -22 c73 -41 482 -293 529 -325 34 -23 42 -35 42 -59 0 -41 -16 -68 -47
-80 -33 -12 -39 -9 -344 181 l-242 150 -31 -18 c-17 -10 -137 -84 -266 -163
-129 -80 -243 -148 -253 -152 -27 -10 -72 18 -87 52 -10 25 -9 33 4 52 19 28
604 389 630 389 10 0 40 -12 65 -27z m4829 -44 c2 -40 11 -93 22 -122 14 -35
16 -53 9 -58 -8 -5 -8 -8 0 -13 7 -4 9 -23 6 -47 -4 -36 -3 -39 13 -30 15 8
18 5 17 -15 0 -14 -9 -30 -19 -36 -16 -9 -18 -8 -12 7 5 15 4 16 -9 5 -11 -9
-13 -16 -5 -24 5 -5 10 -15 10 -20 0 -6 -7 0 -16 12 -15 22 -17 22 -31 5 -8
-10 -11 -11 -7 -3 5 10 1 9 -14 -4 -12 -10 -24 -28 -28 -39 -5 -15 -8 -17 -15
-6 -4 8 -3 19 3 26 5 7 8 18 6 24 -2 6 -15 -5 -28 -25 -14 -20 -30 -36 -37
-36 -6 0 -13 -3 -16 -7 -2 -5 -3 -3 -2 2 4 15 -26 50 -50 59 -12 4 -15 10 -9
14 6 4 10 22 9 40 -1 17 3 32 9 32 6 0 5 4 -3 9 -8 5 -20 7 -28 4 -7 -3 -13 1
-13 8 0 10 -3 10 -12 1 -17 -17 -33 -15 -19 2 7 8 20 15 29 15 38 1 52 5 52
12 0 14 -24 23 -28 11 -2 -7 -8 -12 -14 -12 -6 0 -6 6 2 15 6 8 9 19 5 25 -4
6 4 10 20 10 15 0 24 4 20 10 -3 6 -23 10 -44 10 -22 0 -44 6 -51 15 -14 17
-35 20 -24 4 4 -7 1 -10 -7 -7 -15 6 -15 11 -4 41 6 13 2 17 -17 17 -28 0 -63
-33 -55 -52 3 -8 -3 -14 -14 -14 -13 0 -15 4 -8 12 5 7 9 16 8 20 -5 29 2 56
14 51 8 -3 22 6 32 19 10 13 24 24 32 24 8 0 11 5 7 11 -4 8 0 9 15 4 12 -4
21 -2 21 4 0 6 6 11 14 11 8 0 16 5 18 12 3 9 13 8 39 -2 19 -8 37 -15 42 -16
4 -1 10 -2 15 -3 9 -2 -40 -30 -53 -30 -5 -1 -3 4 5 9 12 7 12 12 2 22 -6 6
-12 8 -12 3 0 -6 -4 -3 -10 5 -7 12 -13 9 -34 -13 -30 -32 -32 -39 -11 -31 8
4 15 2 15 -4 0 -13 -27 -23 -45 -16 -9 4 -15 0 -15 -9 0 -23 19 -31 37 -15 14
11 16 11 9 0 -7 -11 -4 -12 13 -3 11 7 21 9 21 6 0 -3 9 -1 21 6 14 7 25 7 31
1 7 -7 3 -12 -11 -17 -12 -3 -21 -10 -21 -15 0 -5 -15 -8 -34 -6 -25 1 -33 -1
-29 -11 3 -7 11 -13 18 -13 7 0 20 -3 29 -6 11 -4 16 -1 16 11 0 12 6 16 20
12 11 -3 22 -1 25 4 3 4 13 5 23 2 13 -4 13 -2 -3 10 -15 13 -16 17 -5 17 12
0 11 3 -2 11 -10 5 -18 15 -18 20 0 6 5 7 10 4 6 -4 17 -2 24 4 11 9 18 8 30
-4 15 -15 21 -12 17 9 -5 23 10 55 23 50 7 -3 16 2 19 10 4 9 13 16 22 16 8 0
15 5 15 10 0 6 1 10 3 10 2 0 4 -32 5 -71z m1237 41 c3 -5 1 -10 -4 -10 -6 0
-11 5 -11 10 0 6 2 10 4 10 3 0 8 -4 11 -10z m-240 -20 c3 -5 2 -10 -4 -10 -5
0 -13 5 -16 10 -3 6 -2 10 4 10 5 0 13 -4 16 -10z m275 -21 c0 6 4 11 10 11 5
0 7 -7 3 -16 -3 -8 -12 -13 -19 -10 -8 3 -27 -2 -43 -12 -26 -14 -32 -15 -43
-3 -11 12 -10 13 4 8 10 -3 27 2 40 13 16 13 27 15 36 8 8 -7 12 -7 12 1z
m-1490 -3 c0 -3 -4 -8 -10 -11 -5 -3 -10 -1 -10 4 0 6 5 11 10 11 6 0 10 -2
10 -4z m1484 -55 c-6 -6 -24 19 -24 34 1 6 7 1 15 -9 8 -11 12 -22 9 -25z
m-1484 19 c0 -5 -4 -10 -10 -10 -5 0 -10 5 -10 10 0 6 5 10 10 10 6 0 10 -4
10 -10z m946 -1 c3 -6 0 -15 -7 -20 -22 -14 -28 -11 -22 11 6 22 18 26 29 9z
m-2496 -20 c0 -6 -4 -7 -10 -4 -5 3 -10 11 -10 16 0 6 5 7 10 4 6 -3 10 -11
10 -16z m3003 14 c4 -3 0 -17 -8 -30 -9 -13 -13 -28 -10 -33 4 -6 -1 -7 -11
-3 -14 5 -16 3 -11 -13 7 -18 7 -18 -7 0 -8 10 -21 16 -28 14 -7 -3 -19 1 -26
8 -11 12 -8 14 18 14 16 0 30 -5 30 -11 0 -6 8 -3 17 7 13 13 15 18 5 22 -10
3 -10 7 -1 18 13 15 22 18 32 7z m22 -43 c-3 -5 -11 -10 -16 -10 -6 0 -7 5 -4
10 3 6 11 10 16 10 6 0 7 -4 4 -10z m-3188 -77 c-3 -10 -5 -4 -5 12 0 17 2 24
5 18 2 -7 2 -21 0 -30z m1688 7 c-3 -5 -11 -10 -16 -10 -6 0 -7 5 -4 10 3 6
11 10 16 10 6 0 7 -4 4 -10z m-25 -30 c-8 -5 -19 -10 -25 -10 -5 0 -3 5 5 10
8 5 20 10 25 10 6 0 3 -5 -5 -10z m1450 -22 c0 -4 -4 -8 -9 -8 -6 0 -12 4 -15
8 -3 5 1 9 9 9 8 0 15 -4 15 -9z m-1483 -14 c-3 -3 -12 -4 -19 -1 -8 3 -5 6 6
6 11 1 17 -2 13 -5z m-4276 -185 c162 -99 300 -186 307 -191 17 -14 15 -69 -4
-96 -36 -52 -68 -37 -507 240 -60 38 -111 67 -115 65 -4 -2 -125 -77 -270
-166 -231 -142 -268 -162 -300 -159 -28 2 -40 10 -55 35 -16 28 -17 35 -4 58
16 32 599 395 633 395 12 0 153 -81 315 -181z m2878 112 c11 -27 21 -53 21
-56 0 -3 31 -79 69 -168 90 -210 168 -405 176 -440 9 -36 -11 -52 -83 -67 -28
-6 -74 -26 -101 -44 -32 -22 -66 -35 -99 -39 -70 -8 -133 -43 -251 -138 l-101
-81 -68 7 c-91 9 -197 -14 -292 -63 -41 -22 -97 -42 -124 -45 -67 -9 -181 -44
-240 -73 -27 -13 -51 -22 -53 -20 -6 6 36 86 45 86 5 0 16 16 25 36 25 51 10
97 -58 171 -30 34 -55 65 -55 70 0 19 181 212 242 259 34 27 109 78 165 114
56 36 153 97 215 137 62 39 145 99 183 132 98 86 340 269 356 270 4 1 16 -21
28 -48z m2831 45 c0 -3 -4 -8 -10 -11 -5 -3 -10 -1 -10 4 0 6 5 11 10 11 6 0
10 -2 10 -4z m-510 -36 c-6 -11 -15 -20 -20 -20 -6 0 -10 -7 -10 -15 0 -8 -9
-19 -20 -25 -16 -9 -20 -8 -20 6 0 10 5 14 15 10 9 -3 15 0 15 10 0 8 7 17 15
20 8 4 15 12 15 20 0 8 5 14 10 14 7 0 7 -6 0 -20z m375 0 c-3 -5 -11 -10 -16
-10 -6 0 -7 5 -4 10 3 6 11 10 16 10 6 0 7 -4 4 -10z m-814 -23 c-10 -9 -11
-8 -5 6 3 10 9 15 12 12 3 -3 0 -11 -7 -18z m659 13 c0 -5 -4 -10 -10 -10 -5
0 -10 5 -10 10 0 6 5 10 10 10 6 0 10 -4 10 -10z m30 0 c0 -5 -2 -10 -4 -10
-3 0 -8 5 -11 10 -3 6 -1 10 4 10 6 0 11 -4 11 -10z m-619 -27 c-8 -15 -10
-15 -11 -2 0 17 10 32 18 25 2 -3 -1 -13 -7 -23z m64 -23 c13 -5 26 -19 30
-31 7 -22 7 -22 23 4 9 15 23 29 31 32 13 5 13 3 -1 -12 -24 -29 -28 -51 -11
-65 14 -11 16 -11 11 3 -4 9 2 23 13 33 26 22 42 20 34 -4 -7 -22 -5 -23 19
-14 9 3 13 10 10 15 -9 15 13 10 26 -6 11 -13 14 -13 27 0 8 9 19 13 24 10 5
-4 9 1 9 9 0 9 7 16 15 16 14 0 20 -12 16 -33 -1 -5 3 -6 9 -2 5 3 10 18 10
32 0 25 14 25 16 0 0 -7 2 -21 2 -31 2 -18 4 -18 27 4 19 18 26 20 29 9 13
-41 15 -43 16 -19 1 14 2 30 1 37 -1 6 3 14 8 17 6 4 8 -10 6 -33 -3 -32 -1
-39 11 -34 9 3 12 0 9 -8 -3 -8 12 -26 36 -42 32 -24 42 -27 55 -17 12 11 13
10 8 -4 -8 -21 -18 -20 -92 3 -68 22 -129 20 -168 -6 -13 -8 -24 -21 -24 -29
0 -13 8 -13 105 1 36 5 101 -23 86 -38 -5 -5 -7 -15 -5 -22 3 -7 0 -16 -7 -21
-9 -5 -10 -2 -6 9 8 20 -4 22 -22 5 -10 -11 -11 -9 -5 7 7 18 6 19 -9 6 -16
-12 -17 -12 -10 5 5 15 0 13 -26 -8 -36 -31 -56 -36 -47 -13 9 26 -14 17 -45
-17 -21 -23 -28 -27 -23 -13 6 16 5 18 -7 8 -16 -16 -33 -17 -24 -2 4 6 0 9
-10 7 -10 -2 -20 3 -23 11 -2 8 0 11 6 8 5 -4 15 0 22 8 9 10 9 15 1 15 -6 0
-11 -4 -11 -10 0 -5 -6 -7 -14 -4 -8 3 -16 -4 -20 -20 -8 -31 -26 -34 -33 -5
-3 12 -11 18 -19 15 -8 -3 -14 -1 -14 4 0 6 5 10 10 10 6 0 10 5 10 11 0 6 -7
9 -15 5 -10 -3 -15 1 -15 13 0 29 -23 42 -96 52 -62 9 -95 5 -146 -16 -23 -9
-24 21 -3 61 l14 28 10 -25 c9 -22 17 -11 11 16 -1 6 4 4 11 -2 19 -19 39 -16
39 6 0 26 17 36 35 21 20 -17 19 -1 -2 22 -21 24 -9 36 16 14 18 -16 18 -16
14 9 -3 13 -10 22 -15 19 -6 -4 -4 4 3 17 l14 24 3 -23 c2 -13 14 -27 27 -32z
m336 37 c-6 -8 -8 -17 -4 -21 4 -4 0 -4 -10 0 -14 5 -15 9 -6 20 6 8 16 14 21
14 7 0 6 -5 -1 -13z m449 5 c0 -5 -7 -9 -15 -9 -8 0 -15 4 -15 9 0 4 7 8 15 8
8 0 15 -4 15 -8z m-139 -14 c0 -10 2 -10 6 0 2 6 9 12 15 12 6 0 8 -6 5 -14
-3 -7 0 -19 6 -25 8 -8 8 -11 -2 -11 -8 0 -11 -6 -7 -15 3 -9 0 -15 -10 -15
-9 0 -12 -5 -8 -12 4 -7 3 -8 -5 -4 -6 4 -9 12 -6 17 4 5 2 9 -3 9 -12 0 -22
38 -15 56 6 17 23 18 24 2z m-425 -33 c3 -17 1 -24 -6 -20 -5 3 -10 18 -10 32
0 32 9 25 16 -12z m-479 3 c-3 -8 -6 -5 -6 6 -1 11 2 17 5 13 3 -3 4 -12 1
-19z m133 3 c0 -11 6 -22 13 -24 9 -4 9 -6 0 -6 -13 -1 -26 16 -29 37 -1 6 2
12 7 12 5 0 9 -9 9 -19z m-87 -6 c-3 -9 -8 -14 -10 -11 -3 3 -2 9 2 15 9 16
15 13 8 -4z m717 -6 c0 -6 -4 -7 -10 -4 -5 3 -10 11 -10 16 0 6 5 7 10 4 6 -3
10 -11 10 -16z m-680 -10 c0 -6 -4 -7 -10 -4 -5 3 -10 11 -10 16 0 6 5 7 10 4
6 -3 10 -11 10 -16z m364 5 c3 -8 2 -12 -4 -9 -6 3 -10 10 -10 16 0 14 7 11
14 -7z m261 6 c-3 -5 -11 -10 -16 -10 -6 0 -7 5 -4 10 3 6 11 10 16 10 6 0 7
-4 4 -10z m160 0 c-3 -5 -11 -10 -16 -10 -6 0 -7 5 -4 10 3 6 11 10 16 10 6 0
7 -4 4 -10z m-955 -10 c0 -5 -2 -10 -4 -10 -3 0 -8 5 -11 10 -3 6 -1 10 4 10
6 0 11 -4 11 -10z m140 -20 c0 -5 -5 -10 -11 -10 -5 0 -7 5 -4 10 3 6 8 10 11
10 2 0 4 -4 4 -10z m-150 -16 c0 -8 -5 -12 -10 -9 -6 4 -8 11 -5 16 9 14 15
11 15 -7z m1190 -36 c0 -6 -7 -5 -15 2 -8 7 -15 17 -15 22 0 6 7 5 15 -2 8 -7
15 -17 15 -22z m1710 -78 c12 -16 48 -49 79 -72 31 -23 91 -73 135 -110 43
-38 126 -98 185 -134 124 -77 228 -160 278 -221 l36 -44 -30 -32 c-47 -50 -63
-79 -63 -114 0 -32 71 -196 90 -208 6 -3 10 -10 10 -15 0 -14 -198 59 -336
123 -282 130 -322 147 -374 156 -30 5 -82 19 -115 32 -57 21 -127 27 -243 19
-21 -1 -45 6 -66 21 l-33 22 132 131 c124 123 135 138 188 242 31 60 64 138
73 172 10 34 20 62 24 62 4 0 17 -13 30 -30z m-2758 5 c0 -5 -5 -11 -11 -13
-6 -2 -11 4 -11 13 0 9 5 15 11 13 6 -2 11 -8 11 -13z m-3382 -25 c6 -11 7
-20 3 -20 -5 0 -16 9 -26 20 -14 16 -14 20 -2 20 8 0 19 -9 25 -20z m3557 -2
c21 -29 9 -43 -34 -41 -78 2 -76 1 -59 18 30 31 78 42 93 23z m58 1 c11 -17
-1 -21 -15 -4 -8 9 -8 15 -2 15 6 0 14 -5 17 -11z m31 -65 c-3 -8 -10 -14 -16
-14 -6 0 -9 4 -6 9 8 12 -21 34 -33 26 -7 -3 -8 0 -5 10 6 14 9 14 30 0 23
-15 24 -14 25 7 l2 23 4 -23 c3 -13 2 -30 -1 -38z m-3555 24 c16 -1 32 -5 35
-9 3 -5 -3 -6 -13 -3 -11 3 -7 -3 10 -16 35 -28 34 -37 -4 -36 -24 1 -40 11
-68 45 -29 36 -32 42 -13 32 13 -7 37 -13 53 -13z m7254 -58 c-3 -5 -16 -15
-28 -21 -19 -9 -19 -8 3 10 28 23 34 26 25 11z m-64 -79 c-23 -19 -30 -30 -21
-33 11 -3 10 -6 -2 -11 -13 -4 -16 -1 -13 15 3 11 6 22 7 23 62 43 77 46 29 6z
m-3696 -4 c35 -13 45 -22 45 -41 0 -20 -5 -22 -61 -21 -56 0 -62 2 -75 27 -13
24 -12 28 3 38 16 9 57 7 88 -3z m275 -18 c-23 -20 -26 -25 -9 -15 14 9 36 15
50 15 13 -1 33 2 44 6 11 4 4 -4 -15 -19 -21 -17 -44 -26 -57 -23 -12 2 -24
-1 -26 -7 -3 -8 -11 -7 -26 2 -17 10 -26 10 -36 2 -7 -6 -16 -7 -19 -2 -5 9
34 48 46 45 4 -2 19 4 35 12 45 24 51 17 13 -16z m-83 5 c-3 -3 -12 -4 -19 -1
-8 3 -5 6 6 6 11 1 17 -2 13 -5z m-354 -47 c9 -3 17 -11 17 -16 0 -14 -30 -7
-41 10 -11 17 -12 39 -1 23 4 -6 15 -13 25 -17z m3777 13 c-8 -5 -19 -10 -25
-10 -5 0 -3 5 5 10 8 5 20 10 25 10 6 0 3 -5 -5 -10z m-3180 -14 c0 -3 -4 -8
-10 -11 -5 -3 -10 -1 -10 4 0 6 5 11 10 11 6 0 10 -2 10 -4z m3265 -56 c-3 -5
-11 -10 -16 -10 -6 0 -7 5 -4 10 3 6 11 10 16 10 6 0 7 -4 4 -10z m-3220 -198
c-3 -3 -11 0 -18 7 -9 10 -8 11 6 5 10 -3 15 -9 12 -12z m-249 -18 c-5 -18 -3
-24 5 -18 8 4 9 3 5 -4 -4 -6 -14 -8 -24 -5 -14 6 -15 4 -4 -9 10 -13 9 -16
-10 -20 -13 -2 -36 -1 -53 3 -16 4 -25 7 -20 8 6 1 18 14 27 31 12 21 23 28
37 25 11 -2 23 0 26 6 12 18 17 9 11 -17z m193 10 c7 5 11 -1 11 -14 0 -16 -5
-20 -15 -16 -8 3 -15 2 -15 -3 0 -5 -11 -12 -25 -15 -16 -4 -23 -11 -20 -19 4
-7 0 -4 -8 6 -15 18 -34 7 -22 -13 6 -9 -8 -14 -29 -11 -4 1 -14 -3 -21 -9
-11 -9 -14 -7 -12 9 1 19 10 26 30 22 5 -1 6 3 3 8 -4 5 4 17 16 25 27 19 42
21 32 4 -4 -7 6 -1 22 14 18 18 31 24 35 16 4 -6 12 -7 18 -4z m-509 -19 c7
-8 27 -17 46 -21 37 -7 42 -15 19 -34 -13 -11 -14 -10 -9 5 6 15 4 16 -14 6
-25 -13 -66 2 -59 22 2 7 -3 17 -12 24 -15 11 -15 12 0 13 9 0 22 -7 29 -15z
m380 -1 c0 -8 -5 -12 -10 -9 -6 4 -8 11 -5 16 9 14 15 11 15 -7z m-410 -8 c0
-3 -4 -8 -10 -11 -5 -3 -10 -1 -10 4 0 6 5 11 10 11 6 0 10 -2 10 -4z m260
-56 c0 -5 -5 -10 -11 -10 -5 0 -7 5 -4 10 3 6 8 10 11 10 2 0 4 -4 4 -10z
m4485 -110 c3 -5 1 -10 -4 -10 -6 0 -11 5 -11 10 0 6 2 10 4 10 3 0 8 -4 11
-10z m-1900 -129 c49 -13 119 -47 230 -111 259 -150 283 -173 314 -297 17 -65
17 -71 0 -136 -10 -38 -29 -86 -44 -107 -15 -21 -132 -134 -261 -251 -129
-117 -234 -216 -234 -220 0 -4 45 -224 99 -487 99 -478 100 -480 86 -538 -7
-33 -12 -60 -11 -62 2 -1 50 -14 106 -28 57 -13 129 -38 161 -55 151 -81 286
-258 324 -426 14 -61 14 -76 1 -132 -8 -35 -27 -81 -41 -103 -38 -57 -362
-408 -407 -441 -21 -15 -69 -35 -107 -44 -62 -15 -73 -15 -130 -1 l-62 16 -39
-49 c-47 -59 -134 -198 -128 -204 2 -2 30 3 62 11 54 14 65 14 127 -1 78 -19
139 -61 181 -121 28 -40 45 -103 93 -344 27 -134 27 -135 10 -208 -20 -85 -50
-128 -177 -247 -95 -90 -230 -187 -336 -239 -91 -46 -293 -96 -388 -96 -133 0
-260 37 -390 115 -31 18 -31 18 -66 -8 -38 -30 -443 -179 -551 -203 -62 -14
-74 -14 -143 1 -70 16 -80 21 -135 76 l-58 58 -108 -75 c-59 -42 -144 -93
-188 -114 -105 -51 -304 -100 -406 -100 -93 0 -288 46 -356 84 -25 15 -51 26
-58 26 -7 0 -81 -25 -166 -55 -224 -81 -266 -89 -354 -70 -54 13 -81 25 -119
57 l-48 41 -157 -76 c-192 -94 -234 -104 -322 -82 -35 9 -80 27 -100 41 l-36
24 -129 -34 c-71 -18 -156 -40 -189 -47 -51 -11 -67 -21 -116 -70 -31 -31 -68
-60 -81 -65 -12 -4 -115 -28 -228 -54 l-205 -47 -65 15 c-73 16 -138 56 -171
105 -12 17 -24 34 -25 36 -2 1 -117 -23 -256 -54 -246 -56 -255 -57 -318 -46
-122 22 -201 100 -230 225 -15 66 -15 76 1 141 9 39 34 106 54 150 194 419
461 1147 610 1664 29 102 56 194 60 203 4 9 -1 28 -10 42 -9 14 -25 57 -35 96
-18 69 -18 78 0 313 22 273 40 374 80 432 29 42 171 200 402 448 l138 147 -34
45 c-23 29 -39 67 -50 112 -15 65 -14 80 14 333 16 146 36 291 44 323 26 108
100 183 209 210 34 9 317 59 630 112 540 91 570 95 627 84 33 -6 79 -24 103
-38 l42 -27 95 70 c140 105 238 152 397 192 159 40 233 43 366 14 111 -25 173
-53 253 -118 l60 -49 220 64 c120 35 257 73 303 84 81 20 86 20 152 4 38 -10
81 -26 95 -37 l26 -21 121 33 c386 105 404 108 471 93 33 -7 70 -18 81 -24 15
-7 61 1 190 36 94 25 181 46 195 47 14 0 54 -7 88 -16 l64 -17 35 27 c27 21
124 56 173 63 3 0 37 -8 75 -18z m-8363 -1953 c2 -36 7 -44 26 -46 20 -3 22 1
22 42 0 39 3 46 19 46 16 0 20 -8 23 -42 3 -40 5 -43 33 -43 28 0 30 3 33 43
3 34 7 43 20 40 13 -3 18 -16 20 -66 l3 -62 -121 0 -120 0 0 58 c0 60 4 72 26
72 8 0 14 -16 16 -42z m198 -150 c0 -17 -14 -31 -53 -53 l-52 -30 53 -3 c44
-3 52 -6 52 -23 0 -18 -8 -19 -120 -19 l-120 0 0 34 c0 40 16 87 33 98 23 15
66 8 86 -13 l20 -22 43 26 c53 32 58 33 58 5z m-19 -207 c24 -30 24 -72 0
-102 -18 -22 -26 -24 -118 -24 -91 0 -98 1 -98 20 0 18 8 20 95 25 93 5 95 5
95 30 0 25 -1 25 -90 28 -94 3 -112 10 -101 37 5 15 20 16 102 13 86 -3 98 -5
115 -27z m-181 -181 c0 -18 8 -20 98 -22 89 -3 97 -5 97 -23 0 -18 -8 -20 -97
-23 -90 -2 -98 -4 -98 -22 0 -13 -7 -20 -20 -20 -18 0 -20 7 -20 65 0 58 2 65
20 65 13 0 20 -7 20 -20z m174 -161 c33 -26 36 -79 6 -109 -17 -17 -33 -20
-120 -20 -93 0 -100 1 -100 20 0 18 8 20 97 22 87 3 98 5 101 22 7 33 -25 46
-115 46 -76 0 -83 2 -83 20 0 19 7 20 94 20 79 0 97 -3 120 -21z m-172 -211
c2 -25 8 -34 26 -36 19 -3 22 1 22 32 0 29 4 36 20 36 16 0 20 -7 20 -35 l0
-35 55 0 c48 0 55 -2 55 -20 0 -19 -7 -20 -120 -20 l-120 0 0 55 c0 48 3 55
19 55 15 0 21 -8 23 -32z m-2 -258 c0 -36 3 -40 25 -40 23 0 25 4 25 40 0 33
3 40 20 40 17 0 20 -7 20 -40 0 -39 1 -40 35 -40 34 0 35 1 35 40 0 33 3 40
20 40 18 0 20 -7 20 -60 l0 -60 -120 0 -120 0 0 60 c0 53 2 60 20 60 17 0 20
-7 20 -40z m200 -159 c0 -17 -8 -20 -52 -23 l-53 -3 -3 -37 -3 -37 53 -3 c45
-3 53 -6 53 -23 0 -19 -7 -20 -115 -20 -108 0 -115 1 -115 20 0 16 8 21 43 23
42 3 42 3 42 43 l0 39 -45 0 c-38 0 -45 3 -45 20 0 19 7 20 120 20 112 0 120
-1 120 -19z m-200 -201 c0 -18 8 -20 98 -22 89 -3 97 -5 97 -23 0 -18 -8 -20
-97 -23 -90 -2 -98 -4 -98 -22 0 -13 -7 -20 -20 -20 -18 0 -20 7 -20 65 0 58
2 65 20 65 13 0 20 -7 20 -20z m136 -236 c47 -22 68 -65 61 -123 -7 -64 -49
-101 -115 -101 -54 0 -85 18 -107 60 -32 61 -9 136 49 164 40 20 70 20 112 0z
m-133 -274 c5 -18 14 -20 101 -20 89 0 96 -1 96 -20 0 -19 -7 -20 -96 -20 -87
0 -96 -2 -101 -20 -3 -11 -14 -20 -24 -20 -17 0 -19 8 -19 60 0 52 2 60 19 60
10 0 21 -9 24 -20z m197 -234 c0 -18 -13 -32 -52 -57 l-53 -34 53 -3 c44 -3
52 -6 52 -23 0 -18 -8 -19 -120 -19 -113 0 -120 1 -120 20 0 16 7 20 38 20
l37 1 -38 32 c-22 19 -37 41 -37 55 0 29 5 28 56 -13 23 -19 46 -35 51 -35 4
0 33 18 63 40 30 22 58 40 63 40 4 0 7 -11 7 -24z m-184 -237 c-21 -31 -20
-71 3 -100 14 -18 29 -24 61 -24 32 0 47 6 61 24 23 29 24 69 3 100 -14 20
-15 25 -2 37 38 38 75 -84 44 -144 -42 -82 -170 -82 -212 0 -20 39 -14 110 12
139 15 17 20 18 32 5 13 -12 12 -17 -2 -37z m184 -219 c0 -12 -10 -25 -25 -32
-22 -10 -25 -18 -25 -59 0 -43 3 -49 25 -55 18 -4 25 -13 25 -30 0 -13 -1 -24
-2 -24 -2 0 -55 20 -118 44 -102 38 -115 46 -115 67 0 21 13 29 110 66 61 23
113 42 118 43 4 0 7 -9 7 -20z m0 -270 l0 -50 -120 0 c-113 0 -120 1 -120 20
0 19 7 20 100 20 l100 0 0 30 c0 23 4 30 20 30 17 0 20 -7 20 -50z m-25 -120
c10 -11 20 -42 23 -70 l5 -50 -123 0 -123 0 7 46 c3 26 11 53 17 60 13 16 61
18 75 4 7 -7 16 -4 29 10 23 26 67 26 90 0z"/>
<path d="M5752 10799 c2 -7 12 -13 21 -15 23 -3 21 3 -4 17 -17 8 -20 8 -17
-2z"/>
<path d="M5806 10795 c-3 -8 -1 -15 4 -15 6 0 10 7 10 15 0 8 -2 15 -4 15 -2
0 -6 -7 -10 -15z"/>
<path d="M6016 10797 c3 -10 9 -15 12 -12 3 3 0 11 -7 18 -10 9 -11 8 -5 -6z"/>
<path d="M6045 10800 c3 -5 11 -10 16 -10 6 0 7 5 4 10 -3 6 -11 10 -16 10 -6
0 -7 -4 -4 -10z"/>
<path d="M6495 10790 c-8 -13 -1 -24 14 -19 6 3 7 10 2 18 -6 10 -10 10 -16 1z"/>
<path d="M6404 10759 c-3 -6 -2 -15 4 -21 6 -6 11 -2 15 11 5 22 -7 29 -19 10z"/>
<path d="M6715 10710 c3 -5 10 -10 16 -10 5 0 9 5 9 10 0 6 -7 10 -16 10 -8 0
-12 -4 -9 -10z"/>
<path d="M6781 10694 c0 -11 3 -14 6 -6 3 7 2 16 -1 19 -3 4 -6 -2 -5 -13z"/>
<path d="M6800 10680 c0 -5 5 -10 11 -10 5 0 7 5 4 10 -3 6 -8 10 -11 10 -2 0
-4 -4 -4 -10z"/>
<path d="M7382 10284 c16 -16 38 -12 38 8 0 7 -6 6 -15 -2 -10 -9 -15 -9 -15
-1 0 6 -5 11 -12 11 -8 0 -7 -6 4 -16z"/>
<path d="M8140 8590 c-8 -5 -12 -12 -9 -15 4 -3 12 1 19 10 14 17 11 19 -10 5z"/>
<path d="M8032 8506 c-31 -29 -67 -59 -79 -65 -31 -16 -29 -28 7 -33 20 -3 30
0 30 8 0 7 25 42 56 78 30 36 52 66 49 66 -4 0 -32 -24 -63 -54z"/>
<path d="M4070 8490 c0 -5 5 -10 11 -10 5 0 7 5 4 10 -3 6 -8 10 -11 10 -2 0
-4 -4 -4 -10z"/>
<path d="M7820 8440 c0 -15 21 -23 32 -12 6 6 2 11 -11 15 -12 3 -21 1 -21 -3z"/>
<path d="M9797 7890 c9 -53 25 -84 17 -35 -3 22 -10 47 -15 55 -5 10 -6 2 -2
-20z"/>
<path d="M9822 7775 c0 -16 2 -22 5 -12 2 9 2 23 0 30 -3 6 -5 -1 -5 -18z"/>
<path d="M8502 7734 l-32 -45 39 -52 c35 -48 101 -199 101 -233 0 -8 2 -14 5
-14 7 0 135 102 135 107 0 14 -34 66 -60 91 -16 17 -30 36 -30 44 0 15 -100
140 -115 144 -5 1 -25 -17 -43 -42z"/>
<path d="M2553 7698 c-12 -40 -21 -74 -19 -75 1 -1 13 4 26 10 20 10 25 19 23
47 -2 19 -3 47 -3 63 -1 15 -2 27 -4 27 -1 0 -12 -33 -23 -72z"/>
<path d="M3937 7650 c6 -24 26 -26 44 -3 12 15 12 16 -3 10 -10 -3 -18 -2 -18
3 0 6 -6 10 -14 10 -9 0 -12 -7 -9 -20z"/>
<path d="M9860 7558 c1 -19 38 -125 39 -110 1 17 -29 122 -35 122 -2 0 -4 -6
-4 -12z"/>
<path d="M2521 7511 c-8 -5 -9 -11 -3 -15 5 -3 12 1 16 9 6 17 6 18 -13 6z"/>
<path d="M2481 7483 c-1 -6 -4 -20 -7 -30 -5 -17 -5 -17 6 0 6 10 9 23 6 30
-3 9 -5 9 -5 0z"/>
<path d="M2447 7377 c-22 -68 -21 -71 3 -47 12 12 18 26 14 31 -4 6 -1 14 5
18 8 5 9 15 3 30 -7 20 -10 16 -25 -32z"/>
<path d="M2426 7284 c-9 -8 -16 -20 -16 -26 0 -6 1 -9 3 -7 1 2 11 14 21 27
22 25 16 30 -8 6z"/>
<path d="M3628 7263 c7 -3 16 -2 19 1 4 3 -2 6 -13 5 -11 0 -14 -3 -6 -6z"/>
<path d="M4050 7261 c0 -6 5 -13 10 -16 6 -3 10 1 10 9 0 9 -4 16 -10 16 -5 0
-10 -4 -10 -9z"/>
<path d="M9961 7234 c0 -11 3 -14 6 -6 3 7 2 16 -1 19 -3 4 -6 -2 -5 -13z"/>
<path d="M8600 7230 c0 -5 7 -7 15 -4 8 4 15 8 15 10 0 2 -7 4 -15 4 -8 0 -15
-4 -15 -10z"/>
<path d="M2396 7215 c-3 -9 -6 -22 -5 -28 0 -7 5 -1 10 12 5 13 8 26 5 28 -2
2 -6 -3 -10 -12z"/>
<path d="M9976 7187 c9 -38 43 -125 43 -112 1 16 -34 124 -43 132 -4 4 -4 -5
0 -20z"/>
<path d="M9316 7132 c-15 -25 16 -183 41 -204 13 -10 14 -5 8 38 -4 27 -11 54
-15 59 -4 6 -7 26 -7 47 -1 40 -17 76 -27 60z"/>
<path d="M8500 7119 c0 -5 5 -7 10 -4 6 3 10 8 10 11 0 2 -4 4 -10 4 -5 0 -10
-5 -10 -11z"/>
<path d="M3222 7060 c0 -14 2 -19 5 -12 2 6 2 18 0 25 -3 6 -5 1 -5 -13z"/>
<path d="M9230 7060 c0 -11 2 -20 4 -20 2 0 6 9 9 20 3 11 1 20 -4 20 -5 0 -9
-9 -9 -20z"/>
<path d="M10021 7044 c0 -11 3 -14 6 -6 3 7 2 16 -1 19 -3 4 -6 -2 -5 -13z"/>
<path d="M3212 6980 c0 -14 3 -34 8 -45 l9 -20 -1 20 c0 11 -4 31 -8 45 l-8
25 0 -25z"/>
<path d="M8446 6975 c-3 -9 -6 -26 -5 -38 1 -14 4 -9 9 13 9 37 7 52 -4 25z"/>
<path d="M9220 6885 c0 -8 2 -15 4 -15 2 0 6 7 10 15 3 8 1 15 -4 15 -6 0 -10
-7 -10 -15z"/>
<path d="M3230 6852 c0 -23 4 -42 9 -42 6 0 7 17 4 38 -8 51 -13 53 -13 4z"/>
<path d="M9255 6820 c-9 -14 5 -161 16 -180 6 -10 7 -2 3 21 -3 20 -7 66 -7
103 -1 36 -3 66 -4 66 -1 0 -5 -5 -8 -10z"/>
<path d="M10081 6785 c0 -16 4 -37 9 -45 8 -12 10 -11 9 5 -1 11 -5 31 -9 45
-8 24 -8 24 -9 -5z"/>
<path d="M9191 6763 c-1 -6 -4 -20 -7 -30 -5 -17 -5 -17 6 0 6 10 9 23 6 30
-3 9 -5 9 -5 0z"/>
<path d="M10142 6579 c6 -16 12 -28 14 -26 5 5 -13 57 -20 57 -3 0 0 -14 6
-31z"/>
<path d="M9142 6475 c0 -16 2 -22 5 -12 2 9 2 23 0 30 -3 6 -5 -1 -5 -18z"/>
<path d="M10200 6415 c0 -5 5 -17 10 -25 5 -8 10 -10 10 -5 0 6 -5 17 -10 25
-5 8 -10 11 -10 5z"/>
<path d="M2435 6400 c3 -5 11 -10 16 -10 6 0 7 5 4 10 -3 6 -11 10 -16 10 -6
0 -7 -4 -4 -10z"/>
<path d="M9227 6396 c-4 -10 -5 -21 -2 -24 9 -9 17 6 13 25 -3 17 -4 17 -11
-1z"/>
<path d="M9981 6274 c-18 -15 -38 -24 -47 -20 -15 6 -69 -22 -60 -31 2 -3 16
3 30 12 26 17 36 9 15 -12 -7 -7 -6 -12 6 -17 9 -3 14 -2 10 3 -3 5 11 19 30
31 19 12 35 25 35 29 0 4 10 13 23 19 16 8 18 11 5 11 -9 1 -30 -11 -47 -25z"/>
<path d="M9830 6205 c-14 -8 -20 -14 -14 -15 5 0 19 7 30 15 24 18 16 19 -16
0z"/>
<path d="M9850 6190 c-9 -6 -10 -10 -3 -10 6 0 15 5 18 10 8 12 4 12 -15 0z"/>
<path d="M9880 6175 c-30 -32 -21 -32 16 0 16 14 24 25 18 25 -6 0 -21 -11
-34 -25z"/>
<path d="M11769 10421 c-17 -13 -23 -29 -23 -56 0 -69 85 -102 132 -52 66 70
-33 169 -109 108z"/>
<path d="M5690 9395 c-7 -9 -8 -15 -2 -15 5 0 12 7 16 15 3 8 4 15 2 15 -2 0
-9 -7 -16 -15z"/>
<path d="M5567 9323 c-4 -3 -7 -11 -7 -17 0 -6 5 -5 12 2 6 6 9 14 7 17 -3 3
-9 2 -12 -2z"/>
<path d="M6602 9254 c-1 -18 5 -37 13 -44 10 -9 15 -9 15 -1 0 6 -4 11 -9 11
-6 0 -12 15 -14 33 l-4 32 -1 -31z"/>
<path d="M6560 9250 c0 -5 5 -10 10 -10 6 0 10 5 10 10 0 6 -4 10 -10 10 -5 0
-10 -4 -10 -10z"/>
<path d="M6575 9220 c3 -5 8 -10 11 -10 2 0 4 5 4 10 0 6 -5 10 -11 10 -5 0
-7 -4 -4 -10z"/>
<path d="M5524 9115 c-3 -8 -2 -20 2 -27 6 -10 4 -10 -9 1 -11 9 -17 10 -17 2
0 -6 0 -14 0 -18 0 -5 8 -8 17 -8 13 0 18 9 19 33 2 34 -3 41 -12 17z"/>
<path d="M6566 9033 c-6 -14 -5 -15 5 -6 7 7 10 15 7 18 -3 3 -9 -2 -12 -12z"/>
<path d="M5626 9005 c-9 -26 -7 -32 5 -12 6 10 9 21 6 23 -2 3 -7 -2 -11 -11z"/>
<path d="M6603 8976 c0 -18 3 -24 9 -18 7 7 7 16 0 28 -8 14 -9 13 -9 -10z"/>
<path d="M6577 8963 c-4 -3 -7 -11 -7 -17 0 -6 5 -5 12 2 6 6 9 14 7 17 -3 3
-9 2 -12 -2z"/>
<path d="M6610 8936 c-9 -12 -8 -15 8 -13 10 0 19 7 19 14 0 17 -12 17 -27 -1z"/>
<path d="M6504 8834 c-18 -14 -18 -15 4 -4 12 6 22 13 22 15 0 8 -5 6 -26 -11z"/>
<path d="M6456 8814 c-5 -14 -4 -15 9 -4 17 14 19 20 6 20 -5 0 -12 -7 -15
-16z"/>
<path d="M6474 8782 c-9 -5 -8 -10 1 -19 11 -10 13 -9 12 7 -1 11 -1 20 -2 20
0 0 -5 -4 -11 -8z"/>
<path d="M6450 8750 c0 -5 -8 -7 -17 -4 -14 5 -15 4 -4 -4 15 -11 41 -5 41 9
0 5 -4 9 -10 9 -5 0 -10 -4 -10 -10z"/>
<path d="M6515 8719 c-4 -6 -14 -8 -22 -5 -8 3 -11 2 -8 -3 3 -5 1 -12 -5 -16
-18 -11 -11 -22 13 -20 12 2 21 8 19 15 -1 7 3 18 9 26 6 8 9 14 6 14 -3 0 -9
-5 -12 -11z"/>
<path d="M6420 8705 c-8 -9 -8 -15 -2 -15 12 0 26 19 19 26 -2 2 -10 -2 -17
-11z"/>
<path d="M6255 8650 c-3 -6 1 -7 9 -4 9 3 16 1 16 -6 0 -6 5 -8 11 -4 8 4 7 9
-2 15 -18 11 -26 11 -34 -1z"/>
<path d="M5940 8601 c0 -5 9 -11 20 -14 24 -6 27 8 4 17 -21 8 -24 8 -24 -3z"/>
<path d="M6250 8569 c0 -5 5 -7 10 -4 6 3 10 8 10 11 0 2 -4 4 -10 4 -5 0 -10
-5 -10 -11z"/>
<path d="M11796 9428 c-17 -10 -16 -12 14 -24 41 -18 40 -18 40 11 0 27 -21
33 -54 13z"/>
<path d="M6740 9009 c0 -5 5 -7 10 -4 6 3 10 8 10 11 0 2 -4 4 -10 4 -5 0 -10
-5 -10 -11z"/>
<path d="M6725 8982 c-10 -7 -18 -32 -10 -32 2 0 9 9 15 20 12 22 11 24 -5 12z"/>
<path d="M6693 8928 c-19 -25 -24 -38 -14 -38 11 0 35 39 28 46 -2 3 -9 -1
-14 -8z"/>
<path d="M11847 9083 c-4 -3 -7 -15 -7 -25 0 -13 8 -18 30 -18 31 0 35 6 24
34 -6 16 -35 22 -47 9z"/>
<path d="M11750 9056 c0 -11 9 -16 26 -16 31 0 28 23 -4 28 -15 2 -22 -2 -22
-12z"/>
<path d="M5695 8390 c3 -5 13 -10 21 -10 8 0 12 5 9 10 -3 6 -13 10 -21 10 -8
0 -12 -4 -9 -10z"/>
<path d="M5777 8369 c7 -7 15 -10 18 -7 3 3 -2 9 -12 12 -14 6 -15 5 -6 -5z"/>
<path d="M6675 8389 c-4 -6 -5 -12 -2 -15 2 -3 7 2 10 11 7 17 1 20 -8 4z"/>
<path d="M6390 7194 c0 -14 3 -14 15 -4 8 7 15 14 15 16 0 2 -7 4 -15 4 -8 0
-15 -7 -15 -16z"/>
<path d="M6492 7155 c0 -16 2 -22 5 -12 2 9 2 23 0 30 -3 6 -5 -1 -5 -18z"/>
<path d="M6598 6993 c7 -3 16 -2 19 1 4 3 -2 6 -13 5 -11 0 -14 -3 -6 -6z"/>
<path d="M6455 6970 c-3 -5 -1 -10 4 -10 6 0 11 5 11 10 0 6 -2 10 -4 10 -3 0
-8 -4 -11 -10z"/>
<path d="M6960 6990 c-13 -8 -13 -10 2 -10 9 0 20 5 23 10 8 13 -5 13 -25 0z"/>
<path d="M6808 6899 c-21 -11 -38 -20 -38 -22 0 -1 18 -2 39 -2 22 0 37 3 34
8 -2 4 3 10 11 13 9 3 13 10 10 15 -7 12 -12 11 -56 -12z"/>
<path d="M6735 6880 c3 -5 8 -10 11 -10 2 0 4 5 4 10 0 6 -5 10 -11 10 -5 0
-7 -4 -4 -10z"/>
<path d="M6850 6829 c0 -13 39 -16 44 -4 3 8 -4 12 -20 11 -13 0 -24 -4 -24
-7z"/>
<path d="M6786 6801 c-3 -5 0 -14 8 -20 10 -9 15 -8 19 3 9 22 -15 37 -27 17z"/>
<path d="M6745 6780 c-3 -5 -1 -10 4 -10 6 0 11 5 11 10 0 6 -2 10 -4 10 -3 0
-8 -4 -11 -10z"/>
<path d="M6870 6786 c0 -2 7 -7 16 -10 8 -3 12 -2 9 4 -6 10 -25 14 -25 6z"/>
<path d="M5611 6736 c-8 -10 -9 -16 -1 -21 5 -3 10 -5 11 -3 4 18 7 38 4 38
-1 0 -8 -6 -14 -14z"/>
<path d="M5795 6730 c3 -5 8 -10 11 -10 2 0 4 5 4 10 0 6 -5 10 -11 10 -5 0
-7 -4 -4 -10z"/>
<path d="M5740 6674 c1 -26 17 -35 43 -23 27 12 36 29 17 29 -5 0 -10 -6 -10
-12 0 -9 -4 -8 -10 2 -8 12 -10 12 -10 1 0 -11 -3 -11 -15 -1 -8 7 -15 9 -15
4z"/>
<path d="M3934 6482 c-39 -31 -102 -84 -140 -117 -38 -33 -108 -84 -154 -114
-93 -59 -226 -146 -362 -235 -54 -35 -115 -87 -161 -137 l-74 -80 34 -37 c19
-21 40 -59 49 -89 9 -29 18 -53 22 -53 32 2 128 33 177 58 84 42 175 64 276
67 l86 2 84 66 c104 83 180 124 256 139 32 6 78 24 102 40 25 15 50 28 55 28
6 0 17 4 25 9 15 10 9 29 -72 221 -102 244 -122 290 -127 290 -3 -1 -37 -27
-76 -58z"/>
<path d="M6220 6370 c0 -5 5 -10 11 -10 5 0 7 5 4 10 -3 6 -8 10 -11 10 -2 0
-4 -4 -4 -10z"/>
<path d="M8626 6193 c-41 -85 -108 -184 -150 -222 -33 -31 -33 -41 -1 -41 14
0 60 -11 103 -24 42 -13 102 -29 132 -35 30 -7 138 -50 240 -97 102 -47 190
-87 195 -90 6 -3 11 13 12 37 1 23 14 65 28 93 l25 51 -37 34 c-21 19 -101 75
-178 126 -77 51 -180 127 -230 169 -49 41 -92 76 -95 76 -3 0 -23 -35 -44 -77z"/>
<path d="M6480 5899 c0 -5 5 -7 10 -4 6 3 10 8 10 11 0 2 -4 4 -10 4 -5 0 -10
-5 -10 -11z"/>
<path d="M8599 5164 c-214 -203 -309 -288 -309 -276 0 6 25 88 56 182 30 94
54 175 52 179 -3 9 -468 -114 -478 -126 -8 -9 -483 -1964 -478 -1968 3 -3 440
154 446 160 2 2 19 79 38 172 51 250 159 711 163 693 1 -3 27 -224 59 -492 32
-268 60 -490 64 -493 4 -4 499 283 516 300 2 2 -46 244 -107 538 -61 294 -111
539 -111 545 0 8 443 419 552 512 l30 25 -164 94 c-89 52 -166 96 -169 98 -4
1 -76 -63 -160 -143z"/>
<path d="M7626 5145 c-126 -35 -232 -67 -236 -72 -4 -4 -66 -245 -136 -535
-103 -422 -131 -523 -138 -505 -24 55 -8 781 24 1037 4 36 6 67 4 69 -2 2
-112 -28 -246 -66 l-243 -70 -257 -1044 c-141 -574 -256 -1047 -255 -1051 1
-3 104 33 229 80 l226 86 17 91 c18 102 89 429 106 490 11 39 13 35 98 -253
47 -162 88 -294 91 -295 3 -1 105 34 226 78 l221 79 42 205 c85 418 218 918
386 1457 47 149 85 274 85 277 0 9 14 13 -244 -58z"/>
<path d="M5911 5141 c-140 -41 -267 -123 -410 -264 -309 -304 -548 -749 -633
-1181 -30 -152 -30 -358 0 -468 43 -157 119 -264 219 -310 70 -32 231 -32 328
0 148 49 288 144 432 295 312 327 544 790 604 1205 18 126 7 349 -21 437 -46
144 -100 220 -192 270 -48 27 -63 30 -158 32 -79 2 -121 -2 -169 -16z m40
-687 c51 -26 73 -89 77 -224 10 -309 -149 -666 -355 -798 -131 -84 -273 -73
-335 26 -20 33 -23 49 -23 142 1 91 5 117 33 197 59 172 194 405 308 532 105
116 219 165 295 125z"/>
<path d="M4578 4846 c-296 -51 -539 -94 -541 -97 -6 -7 -58 -511 -54 -516 3
-2 74 12 158 31 214 48 318 68 330 64 6 -2 -132 -157 -307 -344 -312 -333
-590 -633 -653 -706 l-31 -36 -20 -253 c-11 -138 -19 -253 -18 -254 2 -2 64
10 138 26 201 42 532 97 812 133 137 18 251 36 254 39 13 13 100 517 90 517
-6 0 -150 -22 -320 -50 -171 -27 -312 -48 -314 -45 -9 9 118 158 333 390 72
77 200 217 285 310 85 94 197 213 248 266 l93 97 54 258 c30 143 55 260 55
262 0 8 -109 -9 -592 -92z"/>
<path d="M8818 3065 c-226 -57 -454 -252 -661 -565 -260 -394 -381 -891 -291
-1199 44 -152 136 -271 241 -311 114 -44 276 -24 424 51 75 38 199 133 279
213 l64 66 -28 147 c-16 82 -31 153 -33 159 -2 6 -46 -30 -96 -81 -109 -108
-162 -138 -249 -138 -49 0 -66 5 -100 29 -64 45 -83 91 -82 199 1 66 9 114 28
180 73 244 294 573 433 643 80 41 127 38 224 -15 8 -5 339 355 339 368 0 24
-56 116 -97 160 -69 74 -137 103 -247 106 -55 1 -114 -3 -148 -12z"/>
<path d="M7897 2896 c-126 -35 -232 -67 -236 -72 -12 -12 -485 -1954 -478
-1960 3 -3 104 29 225 73 l220 78 22 110 c89 455 223 965 406 1551 46 149 84
274 84 277 0 10 5 11 -243 -57z"/>
<path d="M7076 2885 c-133 -37 -278 -136 -470 -324 -359 -352 -588 -709 -602
-941 -4 -65 -2 -80 18 -114 14 -24 41 -49 68 -64 41 -22 53 -23 130 -18 55 3
142 21 248 50 187 52 265 63 302 44 83 -44 -20 -161 -212 -240 -115 -48 -203
-49 -309 -4 -13 6 -40 -41 -143 -244 -70 -137 -124 -255 -121 -260 3 -5 35
-19 71 -30 81 -25 210 -27 298 -4 201 52 521 296 701 536 143 189 208 341 208
488 1 94 -13 133 -59 169 -66 52 -202 52 -399 1 -118 -31 -218 -42 -242 -27
-18 12 -16 83 4 125 9 21 46 66 82 103 130 129 241 143 241 29 0 -22 3 -40 8
-40 12 0 406 182 420 195 14 13 42 200 42 286 1 235 -99 335 -284 284z"/>
<path d="M6057 2726 c-125 -35 -229 -65 -232 -67 -2 -3 -63 -245 -135 -539
-72 -294 -134 -543 -137 -554 -5 -19 -249 -143 -260 -132 -14 14 164 668 295
1079 38 119 66 217 63 217 -11 0 -471 -127 -476 -131 -7 -8 -485 -1962 -481
-1967 3 -2 165 78 360 178 196 100 356 179 356 175 0 -3 -16 -69 -35 -147 -20
-77 -34 -143 -31 -145 3 -3 105 31 227 75 l223 79 43 209 c82 403 236 982 401
1512 40 127 65 222 58 221 -6 0 -113 -29 -239 -63z"/>
<path d="M4626 2594 c-175 -46 -321 -86 -325 -89 -3 -4 -74 -205 -158 -448
-84 -243 -152 -437 -153 -432 0 6 34 218 76 473 43 254 75 464 73 466 -5 6
-638 -150 -657 -162 -8 -4 -34 -77 -58 -162 -150 -523 -337 -1047 -554 -1550
-56 -129 -104 -240 -106 -246 -7 -15 569 114 581 130 6 8 116 338 245 734 129
396 236 719 238 718 1 -2 -63 -369 -143 -816 -80 -447 -144 -814 -143 -816 5
-4 300 65 307 72 3 3 106 301 229 662 122 361 220 644 217 627 -2 -16 -41
-266 -85 -555 -44 -289 -83 -539 -86 -556 l-6 -31 284 74 c155 41 286 78 290
82 4 3 14 99 23 211 37 503 103 995 204 1535 17 87 29 160 28 161 -1 1 -145
-36 -321 -82z"/>
<path d="M470 3445 c-17 -20 -5 -45 20 -45 11 0 23 7 26 15 6 15 -11 45 -26
45 -4 0 -13 -7 -20 -15z"/>
<path d="M520 1843 c-59 -21 -77 -86 -35 -128 48 -49 135 -15 135 53 0 44 -60
89 -100 75z"/>
<path d="M520 836 l-35 -13 35 -15 c42 -18 50 -15 50 18 0 27 -2 27 -50 10z"/>
<path d="M560 481 c-17 -32 -12 -41 25 -41 19 0 35 5 35 11 0 20 -21 49 -35
49 -8 0 -19 -9 -25 -19z"/>
<path d="M466 464 c-9 -23 -8 -24 25 -24 24 0 30 3 25 16 -3 9 -6 18 -6 20 0
12 -39 2 -44 -12z"/>
<path d="M11757 12043 c-14 -13 -6 -33 13 -33 13 0 20 7 20 20 0 19 -20 27
-33 13z"/>
</g>
</svg>
